<svg width="1920" height="490" viewBox="0 0 1920 490" fill="none" xmlns="http://www.w3.org/2000/svg">
<path d="M0 298.077C24.5384 296.269 48.8564 290.723 69.6318 276.834C74.1919 273.785 78.1971 270.05 82.6376 266.85C94.5141 258.29 107.304 251.866 121.088 247.107C138.919 240.95 158.4 237.64 177.18 236.454L190.408 235.83C193.534 235.806 197.217 236.193 200.266 235.562C201.949 235.214 203.774 235.791 205.502 235.815L227.423 236.418L292.73 242.711L354.742 251.171C369.677 252.938 385.845 255.075 400.887 253.683C411.1 252.738 421.245 251.178 427.427 241.984L469.709 180.704L485.836 157.323C490.55 150.544 494.917 144.014 500.997 138.365C510.61 129.432 522.509 123.041 535.343 120.446C542.29 119.041 548.933 118.701 555.997 118.936C558.245 119.01 563.618 120.801 565.473 120.1C566.376 119.76 632.827 33.4932 639.896 24.5254C639.923 23.6291 639.8 23.1554 639.407 22.3492C638.796 21.0808 638.727 18.9112 639.104 17.56C639.216 17.1709 639.455 16.8518 639.662 16.516C642.065 12.6576 648.378 1.31263 652.588 0.229735C654.421 -0.243388 656.733 0.00953398 658.344 1.03238C661.995 3.35784 665.407 6.21646 668.963 8.70822L688.133 22.2465C690.169 23.7368 693.698 25.6311 694.601 28.0495L694.718 28.3461C695.484 30.3547 695.398 32.0132 694.527 33.9804C693.273 36.8292 690.764 39.6936 688.962 42.2668C687.469 44.4039 686.161 46.9289 684.328 48.775C683.621 49.4849 682.728 50.1081 681.771 50.4094C680.836 50.7048 677.807 50.4358 677.318 50.749C676.935 50.9975 676.074 52.7203 675.787 53.178L670.669 61.5645L645.243 103.286L627.89 131.694L613.838 154.721C623.999 172.677 627.635 193.138 622.139 213.386C620.274 220.269 617.537 226.412 613.965 232.545C610.622 238.293 606.338 243.808 602.528 249.274L582.544 278.109L528.08 357.214L603.394 353.547L628.756 350.962L712.018 341.65L863.867 321.131C903.558 316.683 943.684 312.305 983.593 315.139C993.165 315.819 1989.7 328.697 1999 331.14L1013 322.878C977.811 316.451 943.073 317.727 907.645 320.626L839.982 327.894L700.214 346.993L647.565 353.249L635.458 354.502C632.487 354.73 628.841 354.755 626.03 355.758C622.41 357.047 616.718 356.179 612.801 356.507L542.843 360.871L529.67 361.138C528.827 361.141 526.103 360.841 525.434 361.144C524.566 361.538 462.802 451.661 456.339 461.061L445.869 476.299C443.89 479.203 441.993 482.523 439.649 485.115C437.835 487.12 435.9 487.894 433.584 489.096C432.733 489.538 432.002 489.763 431.043 489.848C427.493 490.162 423.465 490.123 420.248 488.42C417.658 487.049 414.84 484.654 412.393 482.924L393.695 469.507L343.355 433.805C336.81 429.102 329.468 424.78 323.351 419.546C319.75 416.465 317.694 412.741 317.347 407.94C317.098 404.504 317.885 401.257 319.556 398.267C321.2 395.322 323.48 392.578 325.412 389.804L335.603 374.997L363.263 334.936L391.396 294.177L399.315 282.631C401.483 279.345 403.794 275.464 406.425 272.551C407.509 271.351 409.003 271.087 410.542 270.998C413.224 271.718 414.93 273.47 416.589 275.656C421.34 281.916 425.094 289.475 429.023 296.302C436.112 308.622 444.329 321.044 454.333 331.14C467.409 344.337 484.385 354.688 502.995 356.877C509.562 357.649 516.507 357.286 523.126 357.277L587.014 264.727L604.329 239.743C608.565 233.537 612.934 227.377 615.735 220.32C622.113 204.251 622.83 185.482 616.532 169.227C614.571 164.16 611.669 159.646 609.586 154.682C612.349 147.846 617.728 141.903 621.417 135.59C622.421 133.87 623.08 131.951 624.106 130.206L654.315 80.8457L675.261 46.3685C676.696 45.7409 677.371 46.1857 678.784 46.4147C679.885 46.5921 680.294 46.7712 681.229 46.0443C684.078 43.8291 686.395 38.9161 688.526 35.9365C689.308 34.8398 691.338 32.6197 691.45 31.3099C691.519 30.5353 690.796 29.3076 690.243 28.7523C686.06 24.5452 679.47 20.9946 674.543 17.5322C668.824 13.5153 663.228 8.92718 657.329 5.23955C656.207 4.53889 655.261 3.94826 653.901 4.02653C650.94 5.56378 644.058 16.1481 642.681 19.6044C642.856 21.0502 644.419 22.7578 645.269 23.9508L567.317 124.338C565.771 124.998 561.455 123.653 559.664 123.331C554.886 122.472 548.939 122.517 544.102 122.983C530.768 124.265 516.954 129.953 506.621 138.627C495.586 147.892 487.795 161.303 479.742 173.172L446.345 221.451C440.232 230.406 434.301 240.527 427.245 248.705C420.847 256.12 407.178 257.157 398.176 257.565C395.644 257.681 392.966 258.211 390.441 257.885C385.989 257.309 381.396 257.627 376.907 257.306L348.466 254.414L281.143 245.149L273.035 244.552C218.861 237.943 159.498 233.641 108.206 256.423C100.132 260.009 92.4907 264.535 85.3163 269.72L73.2304 279.07C51.6104 294.504 25.8348 299.631 0 301.903V298.077ZM409.555 275.231C406.347 278.333 403.838 283.157 401.261 286.876L380.655 316.664L340.461 374.889C334.571 383.465 328.103 391.894 322.643 400.746C321.589 402.455 321.134 404.211 321.057 406.225C320.932 409.506 322.35 413.008 324.607 415.354C326.386 417.203 328.921 418.727 331.015 420.215L342.507 428.348L389.91 462.027L413.52 478.759C416.263 480.687 419.017 483.208 421.918 484.808C423.44 485.648 426.116 486.354 427.854 486.297C429.145 486.254 430.544 485.88 431.803 485.592C433.36 484.861 435.156 484.082 436.323 482.763C439.646 479.006 442.509 474.301 445.367 470.15L461.205 447.109L520.515 361.289C515.047 361.274 509.398 361.496 503.964 360.881C483.75 358.592 466.036 348.597 451.784 334.123C445.792 328.038 440.204 321.082 435.446 313.955L424.531 296.483L415.93 281.756C414.44 279.417 412.985 276.819 410.73 275.164L409.555 275.231Z" fill="#BA303D"/>
</svg>
