<svg width="203" height="172" viewBox="0 0 203 172" fill="none" xmlns="http://www.w3.org/2000/svg">
<g clip-path="url(#clip0_54_145)">
<path d="M97.4248 27.4796L98.0385 28.1652C97.7376 28.9578 97.9246 30.2089 98.0432 31.0352C98.0121 31.2954 98.0256 31.7962 97.9261 32.0206C97.8857 32.1116 97.7216 32.1902 97.676 32.2813C97.5931 32.447 97.5957 32.8687 97.5682 33.0676C97.2357 31.2028 96.9141 29.3317 97.4248 27.4796Z" fill="#747377"/>
<path d="M63.9503 31.6566L64.0368 31.6637C66.3271 31.8387 68.747 31.5647 71.0166 31.9421C71.6537 32.048 72.3038 32.2898 72.918 32.4855L69.6969 32.5361C69.1681 32.5493 68.587 32.5249 68.0928 32.7248L67.8991 32.9708L68.0276 33.1601C67.9136 33.3554 67.8489 33.3497 67.6743 33.4684L67.5738 33.5574L66.3323 33.3467C66.1521 33.1163 65.7626 32.7395 65.4715 32.6473L64.7723 32.4189C64.5293 32.0855 64.2999 31.8835 63.9503 31.6566Z" fill="#4A494D"/>
<path d="M118.112 16.4563L118.394 17.1942L118.263 17.2535C117.013 17.8136 115.177 17.8363 114.107 18.6713C113.19 19.3881 111.303 19.5473 110.198 19.9055C109.374 20.1727 108.559 20.4405 107.772 20.8023C107.29 21.0238 106.869 21.3388 106.382 21.5564C104.987 22.1802 103.522 22.6673 102.185 23.4125C101.471 23.8106 100.821 24.3448 100.149 24.8065C99.7162 25.1032 99.2516 25.2868 98.8963 25.6844C98.3607 26.284 98.166 27.0996 98.0701 27.8687L98.0385 28.1652L97.4248 27.4796C97.5165 26.9833 97.5537 26.2337 97.8143 25.8021C98.8735 24.048 102.077 22.7433 103.882 21.8555C105.618 21.0019 107.371 20.1327 109.192 19.4561C110.139 19.1036 111.193 18.9543 112.121 18.6123C114.1 17.8826 116.074 17.0091 118.112 16.4563Z" fill="black"/>
<path d="M122.923 15.3125C123.992 14.8958 125.228 15.035 126.362 15.0022C127.396 14.9723 128.657 14.7377 129.64 15.114C131.114 15.678 132.615 17.1664 133.583 18.3493C134.327 19.2566 134.884 20.2686 135.519 21.2438L139.696 28.0189C140.052 28.6534 140.293 29.3363 140.635 29.9755C140.98 30.6194 141.417 31.2078 141.765 31.8425C142.339 32.8913 142.771 34.0522 143.288 35.1331C143.85 36.3087 144.521 37.4713 145.006 38.6749C145.803 40.6508 146.666 42.7745 147.262 44.8141C147.5 45.6269 147.612 46.4668 147.842 47.2755C147.956 47.6732 148.078 48.1422 148.251 48.516C148.44 48.9228 148.742 49.3052 148.838 49.7465C148.924 50.1414 148.905 50.5544 148.982 50.9521C149.085 51.4841 149.284 52.0488 149.289 52.5903C149.298 53.6574 149.082 54.728 148.974 55.7871C148.889 56.623 148.885 57.4655 148.723 58.2944C148.443 59.7326 147.88 61.2901 147.259 62.6245C145.891 65.5645 144.523 68.4093 142.792 71.1749C142.491 71.6547 142.062 72.0379 141.737 72.4997L139.246 76.2346L139.375 76.4858C139.986 76.4407 140.366 76.1002 140.929 75.9919C141.58 75.8665 142.272 75.887 142.932 75.8053C143.755 75.7035 144.564 75.4899 145.39 75.4147C148.811 75.1048 151.997 75.6328 155.38 75.8179C157.839 75.9527 160.417 75.7176 162.811 76.3569C163.613 76.5715 164.614 76.4958 165.446 76.4893C166.282 76.4828 167.275 76.3775 168.094 76.5048C170.588 76.892 172.435 78.3397 173.697 80.4122C175.439 83.272 177.108 86.1047 178.508 89.1476L182.245 97.7546C182.597 98.5178 183.06 99.2259 183.427 99.9836C184.732 102.68 186.09 105.384 188.078 107.696C190.223 110.191 192.683 111.962 195.388 113.816C196.963 114.895 198.5 116.102 200.222 116.974C200.944 117.341 201.755 117.587 202.5 117.915V118.477V119.714V120.442V172H0.5V144.873V144.342V142.561V141.738C1.1165 141.494 1.60931 141.093 2.15393 140.732C2.77775 140.317 3.46923 139.977 4.0609 139.522C4.53642 139.156 4.95145 138.726 5.43838 138.371C9.567 135.362 12.9217 131.68 15.333 127.238C15.7419 126.485 16.0004 125.659 16.3446 124.876C17.4235 122.424 18.1992 119.962 19.029 117.432C19.252 116.753 19.5725 116.107 19.7877 115.426L21.5168 109.554C21.8094 108.646 22.2301 107.766 22.5527 106.865C23.6017 103.933 24.9199 100.261 27.4589 98.2335C28.081 97.7371 28.8403 97.4798 29.6142 97.2948C30.4795 97.0882 31.3646 97.022 32.2421 96.8866C32.7623 96.8064 33.286 96.6414 33.8033 96.5822C34.6112 96.4894 35.4328 96.5426 36.2385 96.3972L44.8593 94.7123C45.5948 94.5869 46.3331 94.5668 47.066 94.455C47.7133 94.3562 48.3411 94.0609 48.9725 94.0042C50.2718 93.8884 51.6542 94.0137 52.9641 94.0022C54.8618 93.9847 56.7668 93.8107 58.6599 93.9781L55.7719 90.9127C53.4463 88.2726 51.3556 85.3114 49.5894 82.3067C49.1326 81.5294 48.5843 80.7803 48.2144 79.9614C47.1046 77.5047 46.4668 75.0697 46.0221 72.4325C45.832 71.3052 45.7193 70.2502 45.844 69.1053C45.901 68.5828 46.1314 68.0909 46.2237 67.5709C47.7889 58.7492 50.7682 50.4692 54.4097 42.2685C55.2731 40.3243 56.15 38.4608 57.2092 36.6064C57.6049 35.9144 57.954 35.1939 58.4388 34.5535C59.3649 33.3311 60.9104 31.9645 62.5016 31.7231C62.9677 31.7101 63.495 31.738 63.9503 31.6566C64.2999 31.8835 64.5293 32.0855 64.7723 32.4189L65.4715 32.6472C65.7626 32.7395 66.1521 33.1162 66.3323 33.3466L67.5738 33.5574L67.6743 33.4683C67.8489 33.3496 67.9136 33.3553 68.0276 33.1601L67.8991 32.9708L68.0928 32.7248C68.587 32.5249 69.1681 32.5493 69.6969 32.5361L72.918 32.4854C75.0577 32.8284 77.2999 33.2234 79.3629 33.8829C80.4143 34.1757 81.4906 34.2375 82.526 34.5168C84.3331 35.0044 86.1558 35.709 87.9039 36.3601C89.6271 37.002 91.5041 37.5253 93.0792 38.4906C94.0524 39.0874 94.517 39.8153 94.7972 40.8688C95.2706 42.6476 95.0443 44.7878 95.0443 46.6249C95.0448 49.3546 95.1665 52.148 95.008 54.871C94.9278 56.251 94.6035 57.6139 94.5175 58.998C94.358 61.5644 94.2772 64.1354 93.8882 66.6848C93.7054 67.8833 93.4992 69.0888 93.2035 70.2667C93.045 70.8985 92.7819 71.5063 92.669 72.1472C92.568 72.7208 92.5633 73.3417 92.4302 73.9023C92.3188 74.3716 92.1127 74.8109 92.019 75.2873C91.7491 76.6648 91.5264 78.2845 90.8665 79.5507C90.8007 79.6776 90.7391 79.7889 90.6915 79.9238C90.5242 80.3992 90.3315 80.858 90.0803 81.2988C89.3536 82.575 88.3022 84.0232 87.1917 85.0071C86.6188 85.515 85.9548 85.9363 85.3514 86.4106C84.8366 86.8153 84.3554 87.3183 83.8157 87.6833C83.4288 87.9451 82.9952 88.1347 82.6068 88.3994C79.8513 90.2759 76.9881 91.9267 73.8856 93.2315C72.5451 93.7956 71.1239 94.1948 69.7435 94.6541C69.4338 94.7574 69.2188 94.9184 68.934 95.0457C68.4202 95.2744 67.7702 95.3857 67.2232 95.5292C67.7044 95.805 68.2762 96.0833 68.7957 96.2813C69.2075 96.4383 69.6456 96.3841 70.0227 96.6399C70.5329 96.9859 71.1472 96.865 71.6175 97.185C72.0619 97.4878 72.5679 97.71 73.0522 97.9482C73.3024 99.1316 73.3749 100.104 72.9325 101.25C72.3038 101.752 71.6418 102.19 70.8556 102.426L70.7121 102.467C69.9119 102.715 68.9329 102.8 68.0923 102.783C67.7639 102.776 67.4153 102.633 67.0994 102.709C66.8254 102.775 66.5607 102.79 66.2795 102.81C65.7201 103.186 66.236 103.457 66.0029 103.864C65.7838 104.247 65.3943 104.518 65.1747 104.954C65.0815 105.139 64.8121 105.229 64.6272 105.332L64.605 105.619C66.3121 106.607 67.8162 107.8 69.193 109.187C70.4112 110.414 71.7822 112.197 71.7247 113.972C71.6983 114.786 71.3409 115.227 70.7525 115.764C70.1553 116.311 68.647 116.078 67.8333 116.054L67.68 116.213C68.373 117.432 68.5813 118.842 68.6123 120.208C67.9033 120.866 67.1983 121.485 66.1738 121.585C65.6232 121.639 65.3161 121.43 64.8173 121.276C63.0977 120.745 61.6713 120.456 60.2381 119.3C59.9403 120.131 59.4975 121.02 59.5389 121.911C59.5783 122.76 62.398 123.065 63.0791 123.755C63.5509 124.234 63.4266 125.235 63.4199 125.856C63.1065 126.419 62.7859 126.899 62.1846 127.205L62.0318 127.279C61.3108 127.638 60.4816 127.836 59.6808 127.947C58.9127 128.054 58.0446 127.805 57.4277 128.353L57.477 128.687C58.7128 129.789 60.5095 130.392 62.0147 131.08C62.5756 131.336 63.0734 131.689 63.6214 131.962L63.8581 132.079C65.5538 132.96 68.0509 134.823 68.5305 136.756C68.7304 137.563 68.8014 139.693 68.3378 140.387L67.7997 141.126C66.2847 142.865 63.9466 143.382 61.6998 143.552C59.7274 143.701 58.0275 143.316 56.1158 142.978C53.1552 142.455 50.1965 141.753 47.4145 140.613C46.3356 140.171 45.0559 139.602 44.1681 138.855C43.0967 137.953 41.9912 137.363 41.0295 136.286C40.7081 136.456 40.831 136.749 40.6765 137.023C40.6108 137.14 40.3897 137.301 40.2861 137.402C40.1318 138.327 39.6083 138.786 39.1162 139.56C37.9238 141.437 36.3612 143.319 34.6353 144.757C34.2506 145.078 33.7725 145.287 33.3684 145.592L25.3803 151.205L25.3735 151.44C25.9536 151.658 26.4556 152.02 27.0345 152.224C28.5676 152.767 30.1597 153.004 31.7144 153.434L36.3855 154.783L44.7801 156.553C45.2319 156.631 45.6947 156.62 46.1442 156.701C46.8464 156.829 47.5066 157.078 48.2233 157.158C49.9326 157.347 51.7474 157.286 53.4711 157.311C55.6299 157.342 57.8804 157.451 60.0294 157.282C60.7354 157.227 61.5097 157.21 62.2006 157.073C62.8538 156.943 63.4277 156.718 64.0984 156.631C64.9106 156.526 65.7279 156.239 66.5297 156.053C73.2791 154.492 79.7083 151.142 84.6713 146.402C85.253 145.846 85.974 145.322 86.4593 144.694C86.6515 144.445 87.4848 143.51 87.4802 143.265C87.4734 142.941 86.6561 142.484 86.6385 142.016C86.6105 141.265 86.5914 140.411 86.7032 139.667C86.7758 139.185 86.8612 138.891 87.2922 138.608C87.5801 138.42 88.5145 137.864 88.8289 137.945C89.2189 138.046 89.972 138.35 90.1906 138.685L90.2439 138.778C90.3056 138.883 90.3574 138.971 90.3895 139.089C90.6599 140.077 90.3885 141.439 89.8218 142.286C89.5167 142.742 89.3443 143.28 89.1474 143.788C89.7136 143.974 90.2931 144.169 90.8966 144.183C91.8465 144.205 92.6809 143.845 93.6013 143.67L98.1981 142.912C99.1573 142.79 100.134 142.886 101.095 142.805C102.706 142.667 104.323 142.426 105.941 142.399C107.598 142.372 109.217 142.564 110.864 142.703C112.462 142.837 114.097 142.915 115.679 143.177C118.959 143.72 122.441 144.644 125.527 145.847C126.344 146.167 127.063 146.654 127.855 146.99C128.41 147.224 128.857 147.622 129.319 147.993L129.723 147.24C130.022 146.669 130.477 146.389 130.876 145.905C131.065 145.676 131.103 145.505 131.367 145.328C132.647 144.47 133.534 143.101 134.91 142.312C135.878 141.756 136.762 141.061 137.736 140.499C138.744 139.918 139.82 139.489 140.872 139C142.224 138.371 143.651 138.049 145.072 137.64C146.134 137.334 147.223 136.98 148.311 136.764C148.948 136.637 149.603 136.634 150.241 136.519L160.886 134.744C161.59 134.64 162.314 134.715 163.016 134.597C165.098 134.246 167.168 133.649 169.221 133.156C170.705 132.799 172.412 132.476 173.823 131.926L176.253 131.053C177.09 130.797 177.977 130.69 178.645 130.066L178.551 129.815C178.047 129.618 177.345 129.308 176.907 129.003C175.888 128.297 174.549 127.915 173.464 127.275C168.872 124.567 163.646 121.011 161.239 116.202C160.681 117.408 159.903 118.225 158.917 119.118C157.429 120.467 155.328 121.748 153.455 122.524C151.411 123.37 149.266 123.931 147.209 124.725C144.898 125.617 138.768 126.11 136.541 125.17C135.723 124.825 134.729 123.828 134.431 123.018C134.031 121.935 134.089 119.593 134.67 118.532C136.041 116.034 138.176 114.869 140.472 113.347C141.128 112.912 141.881 112.266 142.637 112.026C143.07 111.889 143.185 111.837 143.465 111.497L143.972 111.445C144.016 111.377 144.057 111.325 144.087 111.251C144.24 110.879 144.243 110.362 144.066 110.007C143.42 109.828 142.529 110.336 141.822 110.329C141.501 110.325 141.252 110.18 140.949 110.121C140.138 109.962 139.229 109.739 138.598 109.193C138.186 108.837 137.914 108.381 137.885 107.842C137.796 106.197 139.222 105.673 140.476 105.041C140.779 104.888 141.295 104.669 141.493 104.397C141.591 104.262 141.502 103.964 141.483 103.802C141.308 103.593 141.155 103.407 141.076 103.146L140.569 101.842C139.729 102.17 139.092 102.749 138.352 103.232C136.484 104.449 134.495 104.149 132.345 104.174L132.422 99.9154C132.573 99.6882 132.733 99.5107 132.701 99.2259L132.447 99.1507C132.138 99.2404 131.865 99.3292 131.542 99.2655C130.644 99.0895 129.66 99.1065 128.745 99.0158L128.65 98.0755C128.619 97.3108 128.554 96.2437 128.773 95.5111C128.971 94.8512 129.442 94.2399 129.828 93.6723C131.196 91.6599 132.94 89.8832 134.616 88.1041C133.968 87.7315 133.515 87.3007 132.99 86.7812C132.822 86.6142 132.529 86.2221 132.333 86.1148C132.148 86.013 131.411 86.0501 131.17 86.0436C129.939 86.0125 128.643 86.0456 127.426 85.854C126.798 85.7557 126.302 85.5186 125.742 85.2438C125.416 84.626 124.916 83.8547 124.999 83.1326C125.222 81.1955 127.868 80.7 129.145 79.7458C129.625 79.3877 129.861 79.5091 130.44 79.5637L130.565 79.3346C130.075 78.797 129.202 78.613 128.514 78.4284L125.162 77.579C122.242 76.7937 119.221 75.7567 116.504 74.4599C115.392 73.9294 114.334 73.2474 113.242 72.6767C111.998 72.0263 110.52 71.063 109.432 70.1729C108.241 69.1976 107.074 68.0804 106.257 66.7861C104.556 64.0933 103.684 61.0043 102.66 58.0437C101.936 55.9511 101.271 53.7642 100.78 51.603C100.684 51.1837 100.666 50.7495 100.561 50.3318L99.5359 46.3372L98.0241 36.485L97.5683 33.0675C97.5957 32.8687 97.5931 32.4469 97.676 32.2813C97.7216 32.1901 97.8858 32.1116 97.9262 32.0205C98.0256 31.7961 98.0121 31.2953 98.0432 31.0352C97.9246 30.2089 97.7376 28.9578 98.0386 28.1652L98.0702 27.8687C98.166 27.0996 98.3607 26.284 98.8963 25.6844C99.2516 25.2868 99.7162 25.1032 100.149 24.8065C100.821 24.3448 101.471 23.8106 102.185 23.4125C103.522 22.6673 104.987 22.1802 106.382 21.5564C106.869 21.3388 107.29 21.0238 107.772 20.8023C108.559 20.4405 109.374 20.1726 110.198 19.9055C111.303 19.5473 113.19 19.3881 114.107 18.6713C115.177 17.8362 117.013 17.8136 118.263 17.2535L118.394 17.1942L118.112 16.4563C118.663 16.2358 119.344 16.1999 119.93 16.0749C120.437 15.9667 120.895 15.749 121.418 15.6517C121.978 15.5476 122.386 15.5429 122.923 15.3125ZM0.5 144.873V172H202.5V120.442C200.315 120.231 198.153 119.332 196.081 118.655C193.649 117.861 191.03 117.036 188.52 116.527C188.008 116.423 187.514 116.254 186.989 116.208C185.377 116.066 183.897 116.361 182.313 116.548C181.549 116.639 180.773 116.555 180.015 116.648C179.383 116.725 178.792 116.986 178.156 117.061C175.808 117.339 173.007 117.302 170.749 116.633C169.728 116.33 168.714 115.805 167.777 115.316C166.182 114.483 164.028 112.773 163.044 111.281L162.912 111.069C162.541 110.475 162.135 109.896 161.838 109.263C161.168 107.831 159.955 106.417 158.652 105.483L155.61 105.409L156.733 107.041C157.087 107.495 157.271 108.053 157.6 108.527C158.616 109.992 159.933 110.735 161.388 111.736L161.791 111.737L161.942 115.147C161.945 115.424 161.852 115.881 161.909 116.136C161.948 116.312 162.562 116.886 162.731 117.09L164.514 119.431C165.451 120.554 166.751 121.784 167.883 122.721C168.439 123.18 169.059 123.534 169.652 123.94C171.315 125.076 172.989 126.192 174.751 127.187C175.861 127.814 177.338 128.194 178.221 129.091C178.443 129.131 178.859 129.154 179.016 129.296C179.311 129.563 179.51 129.654 179.904 129.722L180.044 130.127L179.867 130.42C178.805 130.675 177.868 131.233 176.862 131.636C175.802 132.06 174.633 132.384 173.543 132.738C172.28 133.148 170.938 133.388 169.642 133.678L164.844 134.824C162.867 135.263 160.854 135.374 158.863 135.668L156.682 136.062C156.121 136.138 155.545 136.124 154.991 136.215C154.334 136.323 153.692 136.558 153.036 136.641C152.525 136.706 151.985 136.661 151.482 136.755L147.318 137.727C145.351 138.186 143.486 138.593 141.598 139.337C139.626 140.113 137.771 141.203 136.032 142.373C134.567 143.359 133.455 144.346 132.202 145.573C131.343 146.416 130.498 147.206 129.82 148.2C130.434 148.767 131.078 149.287 131.407 150.061L131.671 150.751L131.715 150.879C132.08 152.006 131.819 153.669 131.193 154.69C131.056 154.913 130.837 155.057 130.635 155.22L130.548 155.296C130.166 155.608 129.291 155.578 128.817 155.525C128.346 155.472 128.079 155.463 127.764 155.084C127.211 154.42 127.342 153.167 127.458 152.353C127.551 151.702 127.686 151.044 127.893 150.418C128.068 149.888 128.739 148.865 128.628 148.362C125.858 146.735 123.166 145.766 120.081 144.892C118.517 144.448 116.975 143.993 115.355 143.771C114.194 143.612 113.021 143.61 111.859 143.513C111.226 143.459 110.593 143.274 109.958 143.199C108.633 143.042 107.265 143.014 105.932 143.039C104.184 143.073 102.519 143.366 100.788 143.514C99.3241 143.64 97.6718 143.475 96.2578 143.807C95.785 143.918 95.3126 144.104 94.8314 144.169C94.2938 144.241 93.7349 144.204 93.202 144.301C92.3204 144.463 91.5564 144.695 90.6376 144.683C89.9042 144.673 88.9449 143.997 88.311 144.23C87.2802 144.608 86.1972 146.153 85.3353 146.871C81.2213 150.3 76.9912 153.161 71.9122 155.095C70.7608 155.534 69.585 156.11 68.3471 156.265C66.8611 156.451 65.3104 157.06 63.8249 157.331C62.5725 157.56 61.2844 157.824 60.017 157.945C57.5961 158.177 55.0198 158.086 52.586 158.028C51.5374 158.004 50.3743 158.064 49.3483 157.859L44.4463 157.104L32.2701 154.354C30.0737 153.774 27.7785 153.314 25.6618 152.488C24.9421 152.207 24.364 151.786 23.6851 151.451C25.3512 150.444 26.8771 149.312 28.4692 148.207L31.4198 146.269C32.5042 145.479 33.5342 144.565 34.5531 143.695C35.0348 143.284 35.6208 142.908 36.0442 142.444C36.3692 142.086 36.5989 141.666 36.8964 141.291C37.946 139.966 38.8791 138.685 39.649 137.185C39.9241 136.649 40.3705 136.092 40.4867 135.498C40.6945 134.437 40.1618 131.883 40.9 131.104C41.1908 131.321 41.2228 131.54 41.2762 131.883C41.3519 132.369 41.3486 132.832 41.4813 133.311L42.1703 131.131C41.9344 130.965 41.7157 130.979 41.4369 130.97L41.2253 130.692L41.3532 130.304C41.7239 130.361 41.8655 130.424 42.2162 130.277L42.266 130.186C42.5687 129.66 43.0049 129.272 43.367 128.791C43.7011 128.347 43.8057 127.8 44.2921 127.499C44.6545 126.475 45.2005 125.615 45.6207 124.631C44.9818 124.617 43.7233 124.448 43.1483 124.664C42.8211 124.787 42.3916 125.209 42.0867 125.415C41.296 125.949 41.0057 126.93 40.5763 127.692C40.2217 128.322 39.509 129.143 39.3731 129.859L39.3252 130.254L39.2556 130.329C38.9286 130.695 38.8942 131.096 38.6237 131.459C38.0159 132.273 37.281 133.083 36.5934 133.837C34.7415 135.869 31.7357 137.475 29.0545 138.179C28.5435 138.313 28.0283 138.487 27.4981 138.526C22.5638 138.889 17.3872 137.806 12.6314 139.516C11.8844 139.785 11.2023 140.178 10.4769 140.487L6.26358 142.242C5.14226 142.758 3.97503 143.439 2.78252 143.758C2.43576 143.851 2.19296 144.057 1.82527 144.129C1.31111 144.23 0.910866 144.573 0.5 144.873ZM120.136 17.3844L120.072 17.3394C119.523 16.9737 119.007 17.0957 118.394 17.1942L118.263 17.2535C117.013 17.8136 115.177 17.8362 114.107 18.6713C113.19 19.3881 111.303 19.5473 110.198 19.9055C109.374 20.1726 108.559 20.4405 107.772 20.8023C107.29 21.0238 106.869 21.3388 106.382 21.5564C104.987 22.1802 103.522 22.6673 102.185 23.4125C101.471 23.8106 100.821 24.3448 100.149 24.8065C99.7162 25.1032 99.2516 25.2868 98.8963 25.6844C98.3607 26.284 98.166 27.0996 98.0702 27.8687L98.0386 28.1652C97.7376 28.9578 97.9246 30.2089 98.0432 31.0352C98.1484 31.5522 98.1074 32.1175 98.1623 32.6466L98.5979 36.2661L99.5727 42.0159C99.6934 42.6981 99.6204 43.3941 99.7322 44.0742C100.017 45.8059 100.537 47.5 100.934 49.2055C101.221 50.4356 101.449 51.9013 101.936 53.0627C102.059 53.3571 102.281 53.5787 102.471 53.8299L102.675 54.1007C103.679 55.3147 110.121 56.5122 111.825 56.7213C113.58 56.9365 115.338 56.9094 117.104 56.9269C119.255 56.949 121.446 57.0393 123.592 56.8893C124.489 56.8266 125.326 56.5869 126.207 56.4626C127.018 56.3482 127.851 56.3994 128.66 56.27C130.117 56.0378 131.579 55.6432 133.014 55.3132C136.466 54.5184 140.124 53.5341 143.195 51.7609C144.539 50.9847 145.281 49.7146 146.47 48.8418C146.643 48.715 146.746 48.646 146.847 48.4533C146.66 48.3012 146.525 48.2044 146.279 48.1659C145.701 48.0754 145.124 47.8324 144.558 47.6773C143.094 47.2766 141.454 46.8298 139.961 46.5838C138.502 46.3432 136.882 46.3998 135.398 46.39L128.376 46.4152C126.637 46.4508 125.086 46.9369 123.385 47.1997C121.566 47.4807 119.672 47.6675 117.874 48.0403C114.987 48.6391 112.173 49.4504 109.374 50.3553C107.234 51.0468 104.848 51.7178 103.249 53.3566L103.183 53.4248C102.851 53.4393 102.861 53.4403 102.601 53.2387L102.582 52.8085L103.637 51.9911C105.606 50.742 107.812 50.0258 110.031 49.3416C112.952 48.4411 115.989 47.631 119.003 47.069C119.827 46.9153 120.694 46.884 121.526 46.7767C122.074 46.7061 122.581 46.5003 123.124 46.4249C123.745 46.339 124.38 46.3516 125.002 46.2732C125.871 46.1634 126.698 45.899 127.583 45.8193C129.426 45.6535 131.377 45.7627 133.232 45.7664C135.487 45.7711 137.858 45.6485 140.095 45.9303C141.278 46.0794 142.505 46.4521 143.665 46.7341C144.139 46.8491 144.643 46.8933 145.106 47.0406C145.833 47.2714 146.512 47.6233 147.274 47.7625L147.333 47.5757C147.174 47.33 146.973 47.0635 146.941 46.7691C146.87 46.1057 146.802 45.1718 146.506 44.569C146.135 43.8131 145.918 42.9919 145.599 42.2143L142.771 35.4635C142.485 34.8248 142.097 34.2415 141.787 33.6159C140.107 30.2393 138.222 27.0209 136.239 23.8076C135.373 22.403 134.562 21.0486 133.584 19.7063C133.031 18.9452 132.55 18.2162 131.783 17.6243C131.591 17.4759 130.29 16.5704 130.146 16.6324C129.9 16.7387 129.614 17.1471 129.424 17.3518C128.908 17.9057 128.331 18.531 127.678 18.9345C126.339 19.7627 124.922 20.4591 123.517 21.1767C119.618 23.1688 115.56 24.8646 111.304 25.9811C110.798 26.1137 110.324 26.3644 109.801 26.4235C108.971 26.5169 108.13 26.9161 107.321 27.129C105.983 27.4807 104.641 27.6459 103.273 27.8208C102.11 27.9697 101.218 28.2011 100.011 28.0229C99.8136 27.8617 99.6577 27.7754 99.5629 27.5369C99.4391 27.2249 99.437 26.751 99.5996 26.4474C99.784 26.1038 100.396 25.7045 100.719 25.4514C101.727 24.6603 102.811 23.8783 103.957 23.2866C104.932 22.7831 105.971 22.4345 106.965 21.9731C107.815 21.5791 108.64 21.0931 109.513 20.7508C110.511 20.359 111.576 20.2164 112.585 19.8618C114.485 19.194 116.32 18.3587 118.25 17.7565C118.81 17.5819 119.424 17.6003 120.004 17.4251L120.136 17.3844ZM62.5016 31.7231L63.3489 31.9052C63.3811 32.1576 63.2811 32.3722 63.1977 32.6066L63.106 32.6738C62.8377 32.8728 62.6217 33.0646 62.4099 33.3194L61.994 33.415C62.1178 33.9463 62.5648 34.34 63.0402 34.6233C64.1911 35.3088 65.646 35.7432 66.8969 36.2688C67.981 36.7243 69.0096 37.2773 70.1278 37.6636C71.5418 38.152 73.018 38.4551 74.4361 38.9021C75.3519 39.1908 76.2578 39.5155 77.2056 39.7288C79.4473 40.2335 81.7216 40.4734 83.9944 40.8036C84.7309 40.9106 85.4519 41.1384 86.1853 41.2209C87.2181 41.3372 88.2659 41.2843 89.3023 41.2518C89.9207 41.2324 90.5682 41.2703 91.1731 41.1208C91.5067 41.0383 91.7843 40.8216 92.0474 40.6156L92.5006 40.6288C92.6022 40.7919 92.7555 41.1258 92.8891 41.2515C93.1714 41.5174 93.4583 41.331 93.5205 41.809C92.8865 41.9675 92.1816 41.8395 91.5295 41.8796C89.597 41.9983 87.6563 42.0973 85.7238 41.8165L78.4767 40.7253C77.7251 40.5802 76.9953 40.3279 76.25 40.1542C73.927 39.6127 71.646 39.0432 69.3918 38.2535C67.8261 37.7048 66.3655 37.0141 64.8551 36.352C63.8146 35.8956 62.1732 35.2101 61.4237 34.3937C61.2196 34.1716 61.2497 33.9341 61.288 33.6603C60.9612 33.5651 60.8726 33.6561 60.5852 33.8036C57.9048 35.1791 55.8822 40.6513 54.7189 43.2686C53.1319 46.8398 51.5357 50.425 50.3819 54.1574L48.665 59.36C47.9705 61.8889 47.5114 64.5531 46.9884 67.1216C48.0841 66.1422 49.3182 65.5029 50.7501 65.1087C51.1085 65.0099 51.4778 65.1012 51.8417 65.0576C52.3617 64.9949 52.8558 64.8114 53.3893 64.7542C56.0355 64.4689 58.7112 64.4578 61.3724 64.4438L68.2301 64.4959C69.9259 64.5722 71.718 64.9432 73.4013 65.1925C77.0088 65.726 80.4091 66.3694 83.9467 67.2369C85.0748 67.5137 86.277 67.7158 87.374 68.0889C88.6388 68.5191 90.2393 69.2056 91.141 70.204C91.5072 70.6092 91.8004 71.1092 92.0909 71.5675C92.3857 69.3546 93.0875 67.1848 93.3926 64.9583C93.5956 63.475 93.5873 61.9947 93.7334 60.5134L94.3388 54.7862C94.531 51.9605 94.4968 49.0305 94.4632 46.196C94.4455 44.7182 94.4942 43.0072 94.2332 41.5583C94.127 40.9681 93.7116 40.3331 93.4231 39.8107L93.3195 39.7656C92.4095 39.3587 91.3223 38.674 90.4993 38.1068C89.6747 37.5383 88.441 37.3877 87.4905 37.054L84.5662 36.0473C83.4899 35.6412 82.4902 35.2155 81.3352 35.0398C81.1793 35.0161 81.0452 34.9774 80.897 34.927C80.3573 34.6409 79.6747 34.7036 79.221 34.3498L79.3629 33.8829C77.2999 33.2234 75.0577 32.8284 72.918 32.4854L69.6969 32.5361C69.1681 32.5493 68.587 32.5249 68.0928 32.7248L67.8991 32.9708L68.0276 33.1601C67.9136 33.3553 67.8489 33.3496 67.6743 33.4683L67.5738 33.5574L66.3323 33.3466C66.1521 33.1162 65.7626 32.7395 65.4715 32.6472L64.7723 32.4189C64.5293 32.0855 64.2999 31.8835 63.9503 31.6566C63.495 31.738 62.9677 31.7101 62.5016 31.7231ZM202.5 119.714V118.477L202.353 118.443C200.54 118.02 199.139 117.142 197.609 116.179C193.356 113.501 189.65 110.772 186.538 106.844C186.254 106.484 185.912 106.199 185.66 105.808C185.021 104.814 184.511 103.682 183.948 102.645C182.677 100.305 181.445 97.9096 180.384 95.466L178.623 91.2111L175.273 84.5553C174.274 82.6437 173.155 80.2628 171.542 78.7589C170.643 77.921 169.422 77.5444 168.236 77.2545C166.739 76.8885 165.264 77.0705 163.748 76.9717L159.145 76.4918C157.825 76.4116 156.484 76.5289 155.167 76.4286L151.631 76.0174C149.699 75.868 147.563 75.8875 145.628 76.0084C144.711 76.0661 143.845 76.369 142.944 76.4597C142.014 76.5535 141.057 76.3524 140.217 76.8183C139.751 77.076 139.182 77.1878 138.667 77.3242C138.936 78.3898 138.714 79.8671 139.806 80.4879C140.182 80.701 140.659 80.682 141.071 80.7973C141.687 80.9698 142.335 81.3008 142.837 81.6819C143.968 82.5379 145.833 83.3302 147.209 83.7459C147.49 83.8311 147.827 83.8186 148.093 83.9314C148.318 84.0272 148.472 84.2514 148.698 84.3557C149.16 84.5688 150.061 84.8752 150.576 84.9785C151.717 85.2076 152.973 85.3024 154.137 85.4724C154.776 85.0898 154.81 84.822 155.13 84.1867C155.32 83.8116 155.966 83.5568 156.338 83.3708L156.597 83.4365C156.798 84.1606 156.817 84.4184 156.525 85.1224L156.426 85.1735C156.081 85.3586 155.98 85.4774 155.806 85.8119C155.705 86.0075 155.558 86.1554 155.404 86.3134C155.456 86.9171 156.039 87.7079 156.302 88.2891C157.775 89.2344 159.053 90.302 160.738 90.8561C161.337 91.0531 161.987 91.3174 162.618 91.3801C163.002 91.4182 163.987 91.3019 164.281 91.4327C164.379 91.4769 164.439 91.5777 164.517 91.6504C164.45 92.1288 164.069 92.2596 163.884 92.6443C163.676 93.0765 164.134 94.3928 164.298 94.8381C164.644 95.0969 164.897 95.1962 164.965 95.653L164.997 96.4192L164.754 96.6489C164.408 96.6118 163.88 96.6093 163.629 96.348C163.475 96.1871 163.413 95.9654 163.24 95.814C162.174 94.8828 160.699 94.4565 159.449 93.8463L154.322 91.1018C153.297 90.494 152.28 89.8542 151.324 89.1461C150.796 88.7545 150.326 88.2981 149.779 87.9331C149.363 87.6563 147.097 85.5542 146.98 85.2478C147.198 85.1129 147.326 85.1525 147.571 85.2071C148.618 85.4398 149.389 86.6218 150.187 87.2501C150.597 87.573 151.077 87.8062 151.492 88.1362C152.073 88.597 152.584 89.1315 153.194 89.5583C154.064 90.1661 155.118 90.5657 156.056 91.0677C156.706 91.4147 157.251 91.9031 157.892 92.2531C159.659 93.2199 161.707 94.0674 163.621 94.7213C163.414 93.8086 163.205 93.0469 162.683 92.2426C160.374 91.5792 158 90.8385 156.218 89.1692C155.877 88.8502 155.406 88.4345 155.2 88.0158C154.99 87.5886 155.002 87.2691 154.691 86.8534C154.612 86.7471 154.571 86.6634 154.519 86.5435C154.432 86.3379 154.316 86.2582 154.137 86.1248C153.073 85.8535 151.695 86.2773 150.77 85.7613C150.357 85.5306 149.987 85.5195 149.553 85.3781C148.742 85.1129 147.837 84.5803 146.957 84.8381L146.885 84.8611C145.699 84.3286 144.588 83.9595 143.591 83.0975C142.947 82.5394 141.936 82.0199 141.154 81.6473C140.696 81.4292 140.376 81.5154 139.958 81.1213L139.763 81.2797L139.849 82.1763L139.989 82.2636C140.144 82.3629 140.236 82.4682 140.345 82.6151L140.411 83.0845C140.621 83.1863 140.787 83.2459 141.022 83.2725C141.648 83.3442 142.286 83.6366 142.901 83.7945C143.481 83.944 144.073 83.969 144.642 84.1636C143.249 84.4535 142.208 84.7318 140.864 84.122L140.52 84.1822C140.558 84.6992 140.918 84.6681 141.102 85.0597C141.218 85.3059 141.2 85.7783 141.277 86.0626L141.924 88.1161C142.189 88.8974 142.586 89.6832 142.89 90.4579C143.034 90.826 143.089 91.2271 143.25 91.5887C143.496 92.1373 143.922 92.6097 144.182 93.1638C144.478 93.7946 144.955 93.7911 145.439 94.1642C145.936 94.5478 146.429 94.9816 146.891 95.4068C148.734 97.1007 150.721 98.9305 152.33 100.831C152.722 101.292 153.016 101.844 153.393 102.323C153.997 103.093 154.613 103.733 155.043 104.623L155.367 104.75L155.451 104.706C156.124 104.384 157.895 104.476 158.593 104.726C161.019 105.598 162.075 108.551 163.496 110.457C164.482 111.778 165.576 112.665 166.877 113.67C167.732 114.331 168.396 114.92 169.416 115.358C170.34 115.755 171.47 116.177 172.458 116.401C173.155 116.559 174.004 116.543 174.721 116.567C175.847 116.604 177.142 116.681 178.256 116.544C178.773 116.48 179.288 116.281 179.807 116.191C180.69 116.037 181.591 115.991 182.48 115.872C184.111 115.653 185.516 115.44 187.178 115.616C189.521 115.863 191.595 116.689 193.824 117.331C196.684 118.155 199.584 119.122 202.5 119.714ZM0.5 142.561V144.342C1.56954 143.133 3.75972 142.662 5.2354 142C8.64314 140.472 12.4377 138.478 16.1843 137.954C19.1498 137.538 22.3613 137.951 25.3568 137.915C26.541 137.9 27.9247 137.909 29.05 137.52C30.7144 136.945 32.2266 136.181 33.7135 135.254C35.1893 134.333 36.6684 132.702 37.7276 131.352C38.082 130.9 38.5084 130.38 38.6233 129.817C38.72 129.344 38.9954 129.191 39.1862 128.782C39.7877 127.492 40.3689 126.256 41.2398 125.11C41.4794 124.794 42.0819 124.081 42.5054 124.043C43.1101 123.988 43.8279 123.923 44.4254 124.016C44.9225 124.094 45.3444 124.022 45.8205 123.878C46.1964 123.514 46.2844 123.098 46.5492 122.668C47.3739 121.326 48.1633 119.856 49.1205 118.604L53.5633 112.939C53.9803 112.451 54.5516 112.144 55.0219 111.715C55.6988 111.097 56.1676 110.299 56.5182 109.474C56.772 108.877 56.6389 108.212 56.7409 107.586C57.0496 105.698 57.4117 103.893 58.1493 102.118L58.0332 102.048C57.2185 102.218 56.2981 102.19 55.4673 102.145C54.736 102.107 54.1926 101.981 53.4908 102.286C52.1334 102.878 51.3893 104.647 50.42 105.67C49.3715 106.778 48.1773 107.885 47.0184 108.886C46.3234 109.487 45.4034 110.013 44.639 110.545C43.3528 111.441 42.1214 112.437 40.7763 113.253C40.1146 113.654 39.3614 113.905 38.6997 114.316L38.5319 114.419C37.4928 114.965 36.4544 115.889 35.9709 116.949L35.9147 117.075L35.6558 117.167C35.5124 116.862 35.3699 116.59 35.0791 116.393L34.987 116.338C35.2899 115.745 35.6905 115.289 36.0211 114.734C36.1949 114.443 36.0943 113.957 36.0063 113.643C35.9397 113.405 35.742 113.295 35.5346 113.18L35.461 113.141C35.3485 112.834 35.2235 112.465 35.3339 112.138C35.5771 111.42 36.8197 111.587 37.41 111.235C38.1158 110.816 38.9124 110.512 39.6328 110.106C41.2671 109.185 42.4134 107.911 43.4907 106.435C43.5619 106.338 43.8185 105.991 43.8135 105.871C43.7849 105.198 42.0399 104.49 41.7046 103.899C41.6586 103.818 41.6506 103.589 41.6331 103.488L41.8365 103.225L42.3622 103.277C43.4055 103.413 43.8233 103.764 44.4514 104.561C45.1183 104.526 45.9634 104.565 46.5974 104.4C48.2664 103.965 49.7341 102.918 51.2315 102.156C52.4446 101.539 53.6079 101.021 54.7572 100.282C55.43 99.8492 55.9008 99.1196 56.6995 98.8889C57.3516 98.7009 57.9296 98.3378 58.6144 98.1468C58.7081 97.3545 59.4255 95.4519 59.1385 94.802L58.978 94.7454C58.4036 94.5578 57.5054 94.6546 56.8917 94.6351C54.5593 94.5618 52.2302 94.4505 49.8998 94.6586C47.9544 94.8321 45.9321 95.1841 44.0126 95.5447C43.3923 95.6615 42.7896 95.8656 42.1652 95.9619C41.7578 96.0246 41.3354 95.983 40.9307 96.0567L33.6739 97.3444C32.1933 97.5791 30.0564 97.5756 28.7354 98.226L28.5987 98.2952C27.4845 98.8398 26.7753 99.8452 26.1173 100.836C23.6689 104.52 22.4674 108.905 21.1369 113.049L19.6544 117.358C19.2043 118.812 18.8785 120.493 18.2251 121.865C17.8721 122.607 17.6404 123.465 17.3336 124.236L15.9366 127.37C15.4886 128.311 14.8822 129.196 14.3248 130.078C13.6918 131.08 13.0866 132.101 12.3422 133.034C10.3847 135.486 7.58404 137.793 4.99275 139.593C4.8516 139.691 4.7326 139.77 4.61764 139.898C4.25351 140.305 3.83511 140.464 3.39224 140.771C2.98456 141.053 2.62976 141.406 2.21709 141.679C1.70234 142.021 1.05897 142.286 0.5 142.561ZM59.0924 65.1353C56.9347 65.2707 54.3869 65.0636 52.3187 65.6102C51.3938 65.8544 50.2934 65.8052 49.5109 66.3403C49.0755 66.6387 48.7834 66.8438 48.475 67.281C48.4251 67.6657 48.4552 67.7038 48.7137 68.0192C49.931 69.503 51.8037 70.2181 53.5426 70.9276C55.7185 71.8157 58.1275 72.7389 60.4961 72.9741C62.0867 73.1325 63.7576 73.4801 65.3213 73.814C65.9242 73.9429 66.5245 73.9705 67.0968 74.2187C67.8323 74.5376 68.8221 74.4579 69.6177 74.4624L73.9736 74.4679C76.0775 74.4719 78.3337 74.6284 80.4221 74.4318C81.0954 74.3681 81.7377 74.0888 82.4006 73.9635C83.3117 73.7915 84.3585 73.5598 85.2763 73.453C86.3935 73.3221 87.6915 73.2704 88.7372 72.8507C89.4422 72.5679 90.1761 72.4661 90.7526 71.9596L91.1074 71.9937L91.2394 72.3979C91.0074 72.7229 90.794 73.0924 90.4936 73.3612C89.7384 73.4791 88.947 73.5076 88.2032 73.645C87.6868 73.7398 87.1937 73.9409 86.6737 74.0171C86.1532 74.0938 85.6197 74.0888 85.1012 74.1806C82.8772 74.5742 80.6785 75.0501 78.4114 75.1965C77.0026 75.2873 75.5466 75.2241 74.1331 75.2231C72.6554 75.2221 71.1451 75.2768 69.6726 75.1594C67.9618 75.0225 66.4038 74.6139 64.7256 74.3426C59.5612 73.5086 53.786 72.7444 49.4367 69.684C48.5351 69.0497 47.7942 68.1977 47.0477 67.4044C46.1254 70.1037 46.676 72.3989 47.2333 75.1173C47.8131 77.4516 48.9218 79.8982 50.1778 81.9697C50.5219 82.5374 50.9757 83.0434 51.3429 83.6C52.3348 85.1028 53.3354 86.6198 54.462 88.0344C54.9722 88.6752 55.6035 89.2233 56.1147 89.8637C57.5287 91.6348 58.921 93.6356 60.942 94.8331C61.0896 94.9204 61.3522 95.119 61.5138 95.1596C61.6387 95.1907 61.9427 95.1315 62.0794 95.1235C63.0335 95.0663 63.711 95.1235 64.6366 95.2468C65.1032 95.3095 65.4259 95.1801 65.6321 95.6184C65.8786 95.4981 66.0267 95.3652 66.2147 95.1706C67.2429 95.0648 67.7059 94.6822 68.6149 94.3623C69.3639 94.0985 70.2154 93.8703 70.926 93.5499C72.2685 92.9446 73.726 92.5595 75.082 91.9352C77.7531 90.7051 80.188 89.3467 82.5783 87.6658C82.9652 87.3935 83.4138 87.1944 83.7851 86.9061C84.3616 86.4578 84.8738 85.9027 85.4265 85.4213C87.5677 83.5573 89.2749 81.7386 90.3423 79.1049C90.9603 77.5805 91.2099 75.9031 91.5108 74.3014C91.6652 73.4786 91.934 72.5539 91.7615 71.7204L91.6771 71.6633C91.4787 71.5259 91.3151 71.3995 91.1566 71.2195C90.6951 70.6945 89.8301 69.9884 89.1977 69.6499C87.9251 68.9679 86.423 68.6219 85.0334 68.2378C82.1116 67.43 79.2728 66.8307 76.2883 66.2997C74.1994 65.9281 72.0603 65.5024 69.9419 65.3504L65.8978 65.2135C63.653 65.0902 61.3383 64.8645 59.0924 65.1353ZM147.47 49.0801C146.324 50.2039 145.251 51.2725 143.858 52.1169C141.168 53.7472 138.393 54.6127 135.361 55.418C126.695 57.7207 116.998 58.6891 108.138 56.8527C106.233 56.4581 104.293 55.8378 102.588 54.9306C102.791 55.6708 102.858 56.438 103.055 57.1606C103.214 57.7438 103.509 58.2819 103.701 58.8585C104.316 60.6954 104.97 62.3547 105.788 64.1118C106.258 65.1218 106.702 66.222 107.365 67.1316C108.073 68.1034 109.198 69.1374 110.17 69.8625L113.675 72.1166C115.249 73.0573 117.032 73.9309 118.698 74.7076C119.621 75.1389 120.693 75.3976 121.665 75.7176L128.197 77.6346C129.828 78.0463 131.715 78.6742 133.403 78.2725C134.724 77.9576 135.966 77.2535 137.267 76.8674C137.567 76.7781 137.779 76.6844 138.009 76.4723C139.096 75.4678 139.981 73.8892 140.799 72.6662C142.129 70.6784 143.543 68.6941 144.673 66.5885C145.707 64.6589 146.943 62.2725 147.436 60.1518C147.678 59.1073 148.079 58.1044 148.295 57.0413C148.461 56.2254 148.444 55.3885 148.594 54.5721C148.824 53.3184 148.691 50.8553 148.094 49.7209C147.993 49.5277 147.992 49.355 147.981 49.1428L147.796 49.0167L147.47 49.0801ZM49.7734 119.284C49.0242 119.909 48.8445 120.419 48.3822 121.22L46.5912 124.236C46.654 124.55 46.8875 124.755 47.15 124.934C47.4702 125.154 47.8776 125.242 48.216 125.435C48.6139 125.661 48.9972 126.028 49.3147 126.352C49.5687 126.612 49.9304 127.541 50.1088 127.661C50.3457 127.819 51.5143 127.77 51.8684 127.846C52.2298 127.923 52.5207 128.22 52.9252 128.31C53.121 128.655 53.1785 128.712 53.1365 129.096C52.5274 129.388 51.4459 129.149 50.7645 129.111C50.51 129.097 50.4049 129.061 50.1862 128.937C49.6452 128.632 48.5858 128.749 47.9571 128.717C47.3143 128.685 46.5101 128.551 45.8814 128.687C45.7489 128.715 45.6736 128.766 45.5604 128.83C45.244 129.011 44.5535 129.092 44.3216 129.296C43.8943 129.673 43.4225 130.725 43.2043 131.247L42.6419 132.498C42.4512 133.028 42.002 133.979 41.6781 134.426C41.4972 134.675 41.4773 134.909 41.4487 135.205C41.6607 135.862 42.41 136.37 42.9223 136.826C44.2255 137.985 45.9054 139.198 47.5186 139.917C49.0974 140.622 50.9897 141.105 52.6766 141.516C53.51 141.719 54.2522 142.042 55.1172 142.162C58.6159 142.757 63.1464 143.663 66.2971 141.526C66.8751 141.134 67.3444 140.574 67.8054 140.061C68.083 138.424 68.1431 137.199 67.0714 135.792C65.3933 133.59 62.7528 132.272 60.2029 131.221C59.2727 130.838 58.2741 130.547 57.4386 129.976C57.0522 129.712 56.6239 129.12 56.7057 128.637C56.7368 128.455 56.7979 128.315 56.8057 128.122C56.4685 127.951 56.107 127.915 55.7615 127.776C54.8851 127.422 54.0051 126.985 53.0718 126.79L52.2949 127.214C51.9361 126.673 52.4228 124.745 52.5632 124.119C52.6595 123.692 52.8341 123.3 52.9066 122.863C53.0236 122.157 52.9061 121.468 53.3106 120.851L53.1365 120.606L53.0143 120.584C52.2385 120.431 50.8875 119.683 50.2878 119.186L49.7734 119.284ZM150.224 100.354C149.933 100.781 149.657 101.192 149.281 101.554L149.162 101.567C148.497 101.664 147.976 102.042 147.427 102.392C147.872 103.493 148.119 104.538 148.439 105.663C148.642 106.376 149.004 106.919 148.762 107.688C148.355 108.121 147.951 108.547 147.412 108.828C146.563 109.271 145.223 109.211 144.761 110.133L144.777 110.232C144.874 110.835 144.929 111.327 144.63 111.888C142.866 112.909 140.756 113.694 139.188 114.985C138.763 115.335 138.242 115.574 137.802 115.91C136.321 117.04 134.971 118.778 134.784 120.65C134.693 121.551 135.048 122.8 135.669 123.491C136.75 124.694 138.507 124.917 140.087 124.977C140.831 125.005 141.505 124.827 142.234 124.763C143.209 124.678 144.285 124.721 145.24 124.561C146.88 124.287 148.701 123.504 150.283 122.983L152.739 122.051C153.479 121.794 154.188 121.361 154.87 120.983C156.727 119.956 158.621 118.731 159.888 117.028C160.167 116.654 160.357 116.407 160.504 115.957C160.562 115.777 160.654 115.668 160.776 115.523C160.607 115.01 160.258 114.66 160.222 114.127C159.612 113.408 157.547 109.81 156.788 109.675C155.944 109.526 155.055 109.662 154.201 109.454C153.793 109.354 152.379 109.37 152.033 109.597L151.67 109.93C151.252 110.33 150.747 110.474 150.511 111.02C149.999 111.097 149.573 111.079 149.063 111.025C148.694 110.69 148.582 109.746 148.396 109.255L148.504 109.064C148.694 109.175 148.734 109.362 148.887 109.469C149.175 109.67 149.977 109.478 150.339 109.493C151.049 108.856 151.748 108.238 152.148 107.375C152.21 107.241 152.219 107.193 152.347 107.132C152.806 106.915 152.838 106.62 153.144 106.289C153.495 105.909 153.961 105.572 154.364 105.242C153.324 103.513 152.198 101.604 150.577 100.322L150.224 100.354ZM125.851 16.3758L124.668 16.7208C123.247 17.1408 121.75 17.3493 120.34 17.7965L118.215 18.4773C117.895 18.5813 117.611 18.7745 117.275 18.8305C116.209 19.0084 115.2 19.5595 114.187 19.9271C110.833 21.1439 107.299 22.321 104.115 23.9176C103.56 24.1959 103.141 24.6916 102.586 24.9828C102.142 25.2157 101.385 25.6635 101.071 26.052C100.918 26.2408 100.779 26.3222 100.558 26.4285L100.473 26.468C100.279 26.813 100.235 26.8796 100.257 27.2667L100.313 27.311C101.21 27.9431 103.412 27.1342 104.404 26.9684C105.015 26.8661 105.661 26.8802 106.263 26.762C106.605 26.6947 106.915 26.4946 107.246 26.3892L109.658 25.7136L114.837 24.1965C117.758 23.1888 120.588 21.8751 123.344 20.5132C124.47 19.9572 125.468 19.3579 126.54 18.7308C126.84 18.5556 127.161 18.4428 127.44 18.2318C128.31 17.5756 129.01 16.7195 129.624 15.8405C129.098 15.9545 128.563 16.1692 128.045 16.2566C127.337 16.376 126.569 16.3699 125.851 16.3758ZM135.3 88.8206C134.551 89.2118 134.173 89.7734 133.609 90.3526C132.812 91.171 131.936 91.9222 131.199 92.7947C130.706 93.3779 130.292 94.0809 129.864 94.7128L129.813 94.7855C129.155 95.7418 129.209 97.0145 129.438 98.1006L129.483 98.2892C130.643 98.5359 131.678 98.6372 132.859 98.395C133.78 97.2868 135.081 96.5245 135.939 95.4223C136.036 95.2975 136.141 95.2152 136.267 95.1195L136.526 95.2839C136.503 95.5036 136.509 95.8225 136.447 96.0291C136.336 96.3952 135.097 97.6398 134.755 97.9306C134.397 98.2355 134.109 98.6758 133.821 99.0439C133.759 99.277 133.641 99.3788 133.47 99.5393C133.386 100.174 133.314 100.804 133.101 101.412C132.895 101.998 132.905 102.58 133.2 103.131C133.297 103.312 133.548 103.372 133.742 103.43C135.032 103.817 136.376 103.378 137.49 102.752C138.251 102.324 139.767 101.372 140.186 100.668C140.186 100.109 139.805 99.59 139.628 99.0659C139.494 98.6698 139.497 98.235 139.367 97.8359C139.114 97.0636 138.738 96.3245 138.511 95.5392C138.283 94.7524 138.124 93.9676 137.732 93.234C137.563 92.9176 137.538 92.569 137.414 92.2391C137.147 91.537 136.92 91.0938 136.857 90.325L136.754 90.2353C136.4 89.9218 136.263 89.7167 136.138 89.2589C135.842 89.0287 135.694 88.8397 135.3 88.8206ZM63.5639 105.996C62.8341 106.84 62.9791 107.244 62.6963 108.198C62.6166 108.468 62.4524 108.705 62.3819 108.981C62.1385 109.935 62.0701 110.95 61.7081 111.873C61.3854 112.697 61.4429 113.641 61.0912 114.5C60.7923 115.231 60.9363 116.108 60.7644 116.869C60.6831 117.23 60.3376 117.811 60.3542 118.156C60.3599 118.271 60.4971 118.51 60.5442 118.627C62.0075 119.603 63.6618 120.304 65.3979 120.686C65.6662 120.746 65.9988 120.868 66.2733 120.837C66.5737 120.803 66.6296 120.565 66.8622 120.452C67.0388 120.365 67.2895 120.327 67.4801 120.287C67.7562 119.957 67.7639 119.901 67.7163 119.47C67.5966 118.396 67.1812 117.453 67.0942 116.401C66.6799 116.081 66.222 115.881 65.8372 115.521C65.1338 114.961 64.2678 114.398 63.683 113.731C63.3961 113.403 63.2842 113.38 63.1666 112.953L63.366 112.726C64.2921 112.975 65.5792 113.738 66.2443 114.418C66.582 114.764 67.0606 114.976 67.4884 115.202L70.2444 115.233C70.738 114.7 71.143 114.32 71.085 113.557C71.0353 112.903 70.6272 112.377 70.2599 111.853C69.4426 110.686 68.4704 109.524 67.3423 108.619C66.2551 107.746 65.0147 107.099 64.0782 106.039C63.8809 106.002 63.7633 105.968 63.5639 105.996ZM61.2953 107.876C60.0615 108.505 59.0562 109.472 58.0094 110.352C57.4267 110.841 56.6612 111.463 56.4234 112.201C56.2732 112.667 56.2556 113.201 56.1453 113.682C55.9568 114.502 55.4088 115.605 55.7962 116.433L55.9376 116.448C56.4965 116.512 56.8678 116.687 57.3469 116.961L57.4842 117.004C57.8317 117.116 58.0472 117.201 58.3119 117.459C58.6216 117.762 58.9365 117.798 59.3519 117.867L59.5456 117.78C60.0418 116.419 60.1553 114.909 60.4681 113.502L61.4108 109.237C61.5133 108.815 61.736 108.436 61.8345 108.001L61.6754 107.841L61.2953 107.876ZM50.8567 103.112C50.1816 103.409 49.8707 103.837 49.29 104.211C48.345 104.821 47.0324 105.086 45.9419 105.348C45.5572 105.44 45.241 105.444 44.8494 105.425C44.3083 105.876 44.067 107.059 43.6483 107.703C43.0759 108.584 42.1051 109.377 41.2741 110.025C40.8644 110.345 40.3902 110.467 39.9696 110.764C39.0379 111.422 37.0448 111.721 36.6353 112.891C36.6629 113.383 36.7018 113.802 36.5112 114.27C36.6753 114.3 36.7869 114.32 36.9506 114.281L37.1004 114.191C37.2815 114.088 37.4546 114.038 37.6547 113.98C39.2612 113.514 40.6871 112.421 42.0006 111.469C42.5049 111.105 42.9345 110.91 43.3414 110.417C43.4867 110.241 43.5765 110.211 43.7912 110.134C44.6178 109.84 45.3206 109.076 45.9697 108.525C46.3937 108.165 46.9043 107.906 47.3299 107.547C47.9314 107.039 48.4686 106.375 49.0089 105.803C49.8012 104.964 50.6415 104.175 51.2247 103.175C51.0591 103.093 51.0419 103.092 50.8567 103.112ZM137.513 89.9349C138.484 92.8318 139.63 95.6831 140.39 98.6357C140.484 99.0032 140.545 99.8031 140.73 100.103C140.776 100.177 140.863 100.216 140.929 100.272C141.365 100.054 141.472 99.6882 141.835 99.44C142.202 99.1898 142.709 99.0704 143.115 98.8754C143.55 98.6221 144.495 98.2511 144.745 97.8469C144.606 97.6032 144.461 97.4227 144.264 97.2201C144.118 96.5391 144.133 95.7237 143.873 95.0889L143.574 94.9008C143.46 94.2379 143.167 93.9947 142.919 93.426C142.806 93.1688 142.615 93.0073 142.353 92.89C141.404 92.4632 139.926 91.7687 139.145 91.0662C138.74 90.7021 137.99 90.2528 137.513 89.9349ZM131.08 79.669C130.878 79.8255 130.677 80.0421 130.47 80.1805C130.263 80.3189 129.906 80.3034 129.663 80.3836C129.199 80.5371 128.774 80.8184 128.305 80.9849C127.23 81.368 126.372 82.1287 125.608 82.9285C125.529 83.2775 125.483 83.4345 125.676 83.7695C125.975 84.2855 126.629 84.7147 127.115 85.0522C128.637 85.0607 130.479 84.8326 131.95 85.1851C132.139 85.2307 132.444 85.2508 132.576 85.3912C132.856 85.689 133.157 85.8901 133.5 86.1088C133.91 86.5776 134.351 87.1924 134.937 87.4552C135.159 87.5545 135.382 87.6182 135.62 87.6653L135.806 87.4416C135.769 87.1207 135.722 86.882 135.579 86.5892L135.071 86.4387C135.063 85.9588 135.134 85.5878 134.765 85.2372C134.393 84.8842 134.174 84.7814 133.678 84.7573L133.551 84.8371C133.222 85.0432 133.004 85.1776 132.601 85.2026L132.508 85.1129C132.282 84.8972 132.106 84.7288 131.803 84.6169C131.355 84.0563 131.143 83.7273 131.237 82.9957C131.325 82.3092 131.672 81.7125 132.242 81.2893C132.514 81.0882 132.63 80.9879 132.751 80.672C132.67 80.5361 132.69 80.507 132.532 80.4538C132.068 80.2994 131.858 80.0993 131.541 79.7528C131.388 79.7142 131.239 79.6595 131.08 79.669ZM135.267 84.0568L135.231 84.3762L135.325 84.4199C135.526 84.5171 135.757 84.5989 135.853 84.809C136.299 85.7778 136.596 87.1192 136.727 88.1753C137.083 88.612 137.463 89.1516 137.927 89.4841C138.936 90.2087 140.206 90.5803 141.248 91.2783C141.601 91.5145 141.817 91.881 142.167 92.1313L142.427 92.0801C142.341 91.4378 141.892 90.841 141.688 90.2122C141.54 89.7579 141.495 89.2775 141.359 88.8206C141.163 88.1617 140.821 87.552 140.637 86.876C140.478 86.2928 140.417 85.168 139.958 84.7929L139.645 84.802C139.548 84.4304 139.588 84.3156 139.246 84.1014C138.108 84.0062 136.363 83.8146 135.267 84.0568ZM59.2851 101.733L58.9433 101.984L58.9345 102.094C58.8728 102.694 58.5734 103.115 58.4041 103.676C58.2466 104.198 58.2948 104.749 58.2021 105.277C58.027 106.271 57.5785 107.084 57.6852 108.149C57.7375 108.671 57.003 109.255 57.3449 109.713C57.8618 109.625 59.1302 108.196 59.6068 107.799C60.2423 107.505 60.9451 107.047 61.6169 106.873L61.5532 106.598C62.1903 106.001 62.4078 106.146 62.4612 105.149C62.4881 104.647 62.731 104.212 62.8828 103.739C63.0915 103.088 63.221 102.402 63.3396 101.731C62.4327 101.777 61.5216 101.687 60.6142 101.656C60.1775 101.641 59.6938 101.571 59.2851 101.733ZM67.9804 96.6103C67.3941 96.6048 66.7296 96.5436 66.1593 96.672L65.8719 97.2547L65.4109 97.3454L65.3964 97.5962L65.4974 97.6418C66.1262 97.9472 66.8316 98.5489 67.0316 99.2063C67.2615 99.963 67.2921 101.258 67.0057 101.984L67.1859 102.176L67.2905 102.147C68.2006 101.919 69.2883 102.034 70.2263 102.044C71.1088 101.724 72.1825 100.985 72.5658 100.126C72.7171 99.7865 72.7331 99.6 72.585 99.27L72.3768 98.8302C72.0821 98.2526 70.8949 97.6894 70.263 97.5074C69.4871 97.2837 68.8361 97.0446 68.1571 96.6028L67.9804 96.6103ZM54.2185 121.165C54.117 121.272 53.9331 121.419 53.8627 121.541C53.54 122.103 53.6794 123.23 53.5493 123.888C53.4328 124.478 53.1966 125.009 53.1215 125.615C53.2122 125.764 53.2106 125.829 53.381 125.895C53.6312 125.991 53.8394 126.077 54.0569 126.236C54.9219 126.87 56.4183 126.77 57.1506 127.585C57.4687 127.23 57.4195 126.688 57.508 126.242C57.7364 125.093 58.0291 123.993 58.2016 122.826C57.218 122.435 56.1526 122.066 55.2083 121.598C54.9867 121.489 54.7106 121.193 54.4858 121.134C54.3993 121.111 54.3076 121.154 54.2185 121.165ZM146.27 102.861C146.025 102.963 145.889 103.046 145.696 103.224C145.264 103.622 142.913 104.611 142.915 105.071C142.916 105.329 143.116 105.623 143.2 105.87C143.404 106.47 143.805 107.349 143.844 107.963C143.864 108.272 144.05 108.453 144.232 108.691L144.349 108.852C144.453 108.995 144.516 108.977 144.684 109.024C145.754 108.707 147.019 108.07 148.013 107.555C148.159 106.127 147 104.339 146.597 102.987C146.486 102.935 146.393 102.883 146.27 102.861ZM55.2503 117.153C54.8126 117.631 55.0897 118.619 54.8882 119.284C54.8163 119.523 54.5733 119.735 54.3972 119.911C54.7603 120.595 55.4673 120.705 56.1417 121.039C56.4167 121.175 56.6591 121.382 56.9564 121.473L57.6241 121.559C57.9063 121.803 58.0669 122.042 58.4455 122.113C58.8241 121.212 59.2364 119.574 59.2566 118.61C58.8102 118.372 58.4383 118.482 58.0125 118.141C57.3713 117.626 56.0702 117.271 55.2503 117.153ZM145.029 98.8498L144.958 98.908C144.761 99.0624 144.631 99.1417 144.383 99.1958C143.521 99.3839 143.039 100.191 142.208 100.375C141.997 100.422 141.869 100.554 141.706 100.682C141.486 100.854 141.257 100.988 141.115 101.232L141.205 101.328L141.398 101.545C141.905 102.128 142.088 103.39 142.425 104.133C143.35 103.501 144.442 103.154 145.331 102.538C145.618 102.339 145.869 102.026 146.141 101.795C146.12 101.306 146.023 101.088 145.662 100.723C145.422 100.479 145.257 100.069 145.286 99.7294L145.441 98.9125L145.273 98.7831L145.029 98.8498ZM62.2561 97.8434L60.2096 97.9306C59.9377 98.239 59.5788 98.5489 59.5368 98.9671C59.4669 99.6677 59.4027 100.363 59.2199 101.046L61.7796 100.89L63.784 100.938C63.8555 99.9625 63.7959 99.1507 64.4542 98.3483C64.39 98.1648 64.4102 98.0575 64.2227 97.9657C64.0295 97.871 62.4327 97.7837 62.2561 97.8434ZM129.394 149.246C129.085 149.837 128.779 150.433 128.402 150.984C127.853 151.786 128.078 153.793 128.199 154.737L130.052 154.722C130.577 154.507 130.552 154.32 130.917 153.933C131.313 153.512 131.281 152.903 131.241 152.375C131.201 151.856 131.1 151.422 130.897 150.939L130.841 150.795C130.591 150.18 130.159 149.638 129.662 149.188L129.394 149.246ZM133.835 80.3194C133.996 80.7276 134.212 81.1614 134.274 81.5946C134.353 82.1503 134.814 82.8603 135.114 83.3432C136.44 83.2981 138.093 83.4666 139.375 83.2304C139.602 82.9045 139.582 82.9105 139.504 82.5208L139.425 82.4637C138.87 82.0164 139.128 81.3494 138.805 80.9783C138.722 80.8831 137.762 80.6509 137.558 80.5631C136.692 80.1911 134.826 80.3405 133.835 80.3194ZM140.966 105.619L140.875 105.679C140.67 105.81 140.491 105.914 140.263 106.001C139.786 106.183 138.719 107.025 138.511 107.494C138.469 107.589 138.466 107.644 138.446 107.751C138.663 108.106 139.005 108.678 139.384 108.887C139.719 109.071 140.379 109.158 140.768 109.263C141.608 109.415 142.426 109.676 143.201 109.194C143.327 108.85 143.339 108.64 143.162 108.297C142.949 107.886 142.812 107.397 142.598 107.016C142.349 106.571 142.153 106.382 141.973 105.866C141.931 105.746 141.863 105.67 141.771 105.584C141.499 105.572 141.229 105.54 140.966 105.619ZM58.9961 123.045L58.4771 127.108C59.3804 127.06 60.2397 127.075 61.0705 126.7L61.5501 126.496L62.6026 125.778C62.5772 125.291 62.5321 124.798 62.5705 124.31C61.6677 123.89 59.9455 122.921 58.9961 123.045ZM53.0822 116.025C52.9076 116.094 52.6647 116.143 52.5627 116.296C52.0784 117.029 51.3929 117.607 51.0103 118.407C51.0789 118.537 51.1456 118.758 51.2844 118.81C51.8057 119.006 52.2535 119.36 52.7636 119.596L53.266 120.116C53.6648 119.971 53.6685 119.681 53.8643 119.34C54.1683 118.809 54.1346 117.169 54.043 116.525C53.8006 116.247 53.6933 116.022 53.2842 116.004C53.1904 116 53.1645 116.009 53.0822 116.025ZM118.112 16.4563L118.394 17.1942C119.007 17.0957 119.523 16.9737 120.072 17.3394L120.136 17.3844L123.269 16.479C123.852 16.3168 124.168 16.454 124.668 16.7208L125.851 16.3758L125.326 16.2814C124.496 15.5312 123.873 15.7047 122.923 15.3125C122.386 15.5429 121.978 15.5476 121.418 15.6517C120.895 15.749 120.437 15.9667 119.93 16.0749C119.344 16.1999 118.663 16.2358 118.112 16.4563ZM88.5622 138.92C88.1499 138.996 87.7588 139.034 87.4144 139.282C87.1497 139.798 87.1653 141.225 87.3807 141.772C87.5325 142.156 87.8407 142.531 88.0981 142.857C88.3135 142.818 88.3296 142.807 88.4865 142.658C88.8522 142.164 89.6576 141.319 89.8327 140.766C89.9239 140.479 89.7384 139.612 89.684 139.288C89.3702 139.082 88.9563 138.855 88.5622 138.92ZM146.341 97.9723C146.07 98.6221 146.389 99.5122 146.451 100.229L146.508 100.281C146.89 100.669 146.893 101.24 147.061 101.728L148.673 100.686L149.467 99.6531L148.043 98.2711C147.733 97.9502 147.141 97.8208 146.693 97.8549C146.548 97.8659 146.468 97.9091 146.341 97.9723ZM137.576 77.7886C137.1 77.8518 136.568 77.9064 136.116 78.0699C135.304 78.3633 134.558 78.8567 133.707 79.0548C133.05 79.2072 132.228 79.1169 131.549 79.144C132.003 79.3907 132.489 79.6104 132.851 79.9779C132.973 80.1018 133.132 80.182 133.289 80.2557L133.676 79.9057C134.258 79.3897 134.925 79.3466 135.672 79.3857C136.609 79.4354 137.388 79.5071 138.284 79.7423L138.515 79.7713C138.436 79.2473 138.42 78.0197 138.015 77.7179L137.576 77.7886ZM154.889 105.996L154.826 106.08C154.427 106.603 153.855 106.897 153.41 107.377C152.872 107.958 152.452 108.694 151.968 109.325C152.567 109.139 153.144 108.992 153.634 108.595L154.007 108.579C154.985 109.017 155.818 108.857 156.824 109.069C156.607 108.024 155.559 107.041 155.095 106.071L154.889 105.996ZM46.0591 125.427C45.8344 125.791 45.5447 126.192 45.3993 126.591C45.3019 126.859 45.353 127.185 45.2191 127.433C44.9648 127.904 44.6422 128.154 44.4671 128.697C45.4517 128.242 45.9018 127.703 47.0495 127.62C47.6429 127.64 48.5975 127.852 49.1224 127.635L49.1682 127.433C48.6141 126.849 47.1046 125.418 46.2697 125.402C46.1477 125.4 46.1585 125.403 46.0591 125.427ZM60.2703 95.3396C59.9222 95.805 60.1817 96.3164 59.8517 96.8771C59.9341 96.9774 60.002 97.1313 60.1382 97.1443C60.5272 97.183 60.8514 97.0756 61.2295 97.038C62.2043 96.9402 63.7866 96.838 64.7184 97.0947L64.952 96.9041C65.2933 96.4809 65.6279 96.2743 65.5673 95.7277C65.4083 95.82 65.154 96.0151 64.9846 96.0672C64.8339 96.1139 64.4092 96.0411 64.2232 96.0396C63.4101 96.0331 62.3954 96.1349 61.6081 95.9569C61.1938 95.8636 60.8462 95.5999 60.5147 95.3531L60.2703 95.3396ZM58.1208 99.2259C57.5085 99.4465 56.9378 99.6381 56.4012 100.005L54.78 101.232L54.7779 101.519C54.9654 101.532 55.1493 101.549 55.3378 101.54C56.496 101.359 57.4915 101.244 58.5905 100.818C58.7459 100.534 58.7169 99.6 58.6149 99.2876L58.575 99.1763L58.1208 99.2259ZM65.1959 98.4737C64.6407 99.3573 64.4366 100.361 64.6329 101.388C65.0074 101.615 65.372 101.562 65.8071 101.482C66.1847 101.216 66.3442 101.146 66.41 100.668C66.4856 100.114 66.3655 99.5704 66.0081 99.1406C65.8413 98.9406 65.7066 98.7119 65.5673 98.4933L65.1959 98.4737ZM55.2182 112.64C54.2765 113.221 53.468 114.15 53.0361 115.147L53.2013 115.427L53.8316 115.557L54.3019 115.922C54.6246 115.791 54.6811 115.796 54.8261 115.471C55.1446 114.756 55.4238 113.667 55.5067 112.891L55.371 112.671L55.2182 112.64ZM64.5723 102.109C64.2776 102.238 64.0704 102.278 63.9689 102.611L63.9296 102.85C63.8964 103.07 63.8472 103.157 63.7219 103.339C63.4225 103.774 63.3935 104.486 63.4515 104.993C63.7933 105.078 63.898 105.036 64.2004 104.85L64.2724 104.794C64.534 104.495 64.8365 104.172 65.0297 103.828C65.2964 103.352 65.3529 102.798 65.6388 102.297L65.5673 102.08C65.24 102.078 64.8955 102.054 64.5723 102.109ZM144.615 94.7128C144.528 95.1857 144.984 96.6173 145.268 97.0325C145.458 97.3088 145.647 97.5244 145.979 97.6358C146.154 97.4919 146.262 97.3981 146.371 97.197L146.617 97.3239L147.274 97.0441V96.8114L145.009 94.6691L144.615 94.7128ZM132.894 81.8002L132.844 81.8634C132.623 82.1327 132.375 82.3087 132.086 82.5033C132.017 82.8277 131.976 82.9481 132.194 83.2409L132.552 83.618C132.606 83.9525 132.59 84.2027 132.836 84.4595C133.121 84.3938 133.247 84.2358 133.438 84.0372L133.575 83.9736L134.647 83.5724L133.684 82.3223C133.496 82.0635 133.31 81.9351 133.029 81.7792L132.894 81.8002Z" fill="black"/>
<path d="M118.112 16.4564C118.663 16.236 119.344 16.2001 119.93 16.075C120.437 15.9668 120.895 15.7491 121.418 15.6518C121.978 15.5478 122.386 15.543 122.923 15.3126C123.873 15.7048 124.496 15.5314 125.326 16.2815L125.851 16.3759L124.668 16.7209C124.168 16.4541 123.852 16.3169 123.269 16.4791L120.136 17.3845L120.072 17.3395C119.523 16.9738 119.007 17.0958 118.394 17.1943L118.112 16.4564Z" fill="#4A494D" fill-opacity="0.984314"/>
<path d="M90.9649 39.4271L91.4005 39.3519C91.6693 39.5004 92.0464 39.644 92.1759 39.9286L91.948 40.1793C91.6615 40.3156 91.5243 40.3431 91.2058 40.3331C91.011 39.9747 90.8592 39.8448 90.9649 39.4271Z" fill="black"/>
<path d="M62.5016 31.7232C62.9677 31.7101 63.495 31.7381 63.9503 31.6566C64.2999 31.8835 64.5293 32.0855 64.7723 32.4189L65.4715 32.6473C65.7626 32.7395 66.1521 33.1163 66.3323 33.3467L63.884 33.3289C63.3427 33.3487 62.9569 33.4516 62.4099 33.3194C62.6217 33.0647 62.8377 32.8729 63.106 32.6739L63.1977 32.6067C63.2811 32.3722 63.3811 32.1576 63.3489 31.9052L62.5016 31.7232Z" fill="#232024"/>
<path d="M75.7165 35.0031C76.3179 34.9506 77.0357 34.8246 77.6329 34.8895C80.0259 35.1498 82.4374 36.0239 84.7226 36.7023L89.9109 38.3701C90.3123 38.5527 90.6055 38.968 90.7386 39.3645L90.5925 39.5525C90.0119 39.5157 89.7177 38.991 89.1526 38.868C88.2001 38.6605 87.215 38.1387 86.2837 37.8227C85.7243 37.6328 85.1349 37.5713 84.5828 37.3566C81.7522 36.2557 78.6797 35.6781 75.7165 35.0031Z" fill="black"/>
<path d="M72.918 32.4855C75.0577 32.8285 77.2999 33.2234 79.3629 33.8829L79.221 34.3498C79.6747 34.7037 80.3573 34.6409 80.897 34.927L80.5842 35.0393L80.6489 35.2371C81.7962 35.589 83.0134 35.99 84.2135 36.1145C84.4253 36.3043 84.5662 36.4674 84.7226 36.7022C82.4374 36.0238 80.0258 35.1497 77.6329 34.8895C77.0357 34.8245 76.3179 34.9505 75.7165 35.0031C75.2172 34.8536 74.6879 34.8239 74.1782 34.7166L67.5738 33.5574L67.6743 33.4684C67.8489 33.3497 67.9136 33.3554 68.0276 33.1601L67.8991 32.9708L68.0928 32.7248C68.587 32.5249 69.1681 32.5493 69.6969 32.5361L72.918 32.4855Z" fill="#747377"/>
</g>
<defs>
<clipPath id="clip0_54_145">
<rect width="202" height="172" fill="white" transform="translate(0.5)"/>
</clipPath>
</defs>
</svg>
