<svg width="163" height="144" viewBox="0 0 163 144" fill="none" xmlns="http://www.w3.org/2000/svg">
<path d="M82.3758 46.5233L82.2784 46.4595C81.8381 46.1465 81.2758 44.5775 81.0196 44.0528C80.3165 42.6131 79.5051 41.1991 78.9238 39.7051C77.3122 35.563 76.3939 30.9285 75.8168 26.5269C77.4844 28.8498 77.7922 33.3254 78.702 36.0958C79.3348 38.0226 80.4625 40.1882 81.3623 42.0117L81.01 42.2202L80.375 41.25C80.2222 42.3196 82.0972 45.2172 82.6223 46.3852L82.3758 46.5233Z" fill="black"/>
<path d="M108.201 97.5695C108.055 98.3982 107.871 99.1463 108.138 99.9702C106.445 101.1 104.808 102.028 102.987 102.929C102.197 103.32 101.486 103.863 100.699 104.267C97.7698 105.768 94.1157 107.495 92.1974 110.313C91.7272 111.003 91.4792 112.085 91.2049 112.875H90.9692L90.7821 112.25C92.1032 106.812 99.9745 103.466 104.36 100.595C105.703 99.7154 106.953 98.5835 108.201 97.5695Z" fill="black"/>
<path d="M82.3758 46.5233L82.6223 46.3852C82.0972 45.2172 80.2222 42.3196 80.375 41.25L81.01 42.2202L81.3623 42.0117C83.4075 45.6475 85.5327 49.2108 87.9836 52.5925C88.6956 53.575 93.7317 59.6902 93.7974 60.3276L93.316 60.4132L93.2494 60.3003C92.9468 59.8023 92.4223 59.405 92.0734 58.9278C90.9732 57.4232 90.0095 55.7142 88.5625 54.5012L88.625 54.25L88.365 54.0846L88.1041 54.3846L87.682 53.9023C87.829 55.4648 90.283 58.1555 91.286 59.5625C91.854 60.3592 92.3641 60.7241 92.3855 61.7389C91.2552 60.7037 90.3156 59.1131 89.4257 57.8554C86.9223 54.3179 84.2053 50.4444 82.3758 46.5233Z" fill="black"/>
<path d="M61.7663 95.625L62.2505 95.6719L62.206 96.1291C61.8858 100.588 64.5583 105.337 67.4208 108.591C68.3079 109.599 69.7388 110.37 71.0206 110.742C75.3764 112.006 79.1787 109.388 82.9998 107.736C84.5401 107.069 85.918 106.416 87.625 106.523L87.125 106.981C85.5871 107.62 83.9734 108.074 82.4245 108.777C81.0377 109.407 79.7839 110.272 78.38 110.888C75.2019 112.282 71.988 112.546 68.7251 111.263C66.6868 110.462 64.5135 108.232 63.6546 106.253C62.5405 103.688 61.9608 101.265 61.6873 98.4967C61.5803 97.4134 61.3484 96.6867 61.7663 95.625Z" fill="black"/>
<path d="M90.6708 98.1004C92.144 98.0076 94.5175 97.9413 95.8711 98.6132C96.9925 99.1697 97.5573 99.8416 97.9622 101C97.7604 101.366 97.544 101.742 97.2697 102.059C96.8644 102.527 96.1672 102.759 95.5637 102.784C94.5856 102.825 93.8098 102.322 92.9208 102.01C91.6071 101.548 89.8146 101.384 88.7928 100.426L88.7388 100.375C87.4768 100.373 86.2618 100.606 85.0244 100.825C82.026 101.527 80.0359 103.048 77.4085 104.535C80.4747 101.01 86.0799 98.6155 90.6708 98.1004Z" fill="black"/>
<path d="M92.3855 61.7389C92.3641 60.7241 91.854 60.3592 91.286 59.5625C90.283 58.1555 87.829 55.4648 87.682 53.9023L88.1041 54.3846L88.365 54.0846L88.625 54.25L88.5625 54.5012C90.0095 55.7142 90.9732 57.4232 92.0734 58.9278C92.4223 59.405 92.9468 59.8023 93.2494 60.3003L93.316 60.4132L93.7974 60.3276L99.9638 67.3221C104.804 72.4714 111.155 77.723 114.427 84.0361C115.294 85.7081 115.677 87.639 115.606 89.5031C115.476 92.9042 112.982 95.9744 110.565 98.1856C109.836 98.8523 108.998 99.4823 108.138 99.9702C107.871 99.1463 108.055 98.3982 108.201 97.5695C109.72 96.2767 111.589 94.0083 112.162 92.0704C114.233 85.0597 107.011 78.6304 102.715 74.0454C99.2056 70.2994 94.8379 66.2547 92.3855 61.7389Z" fill="#1B191A"/>
</svg>
