<svg width="162" height="146" viewBox="0 0 162 146" fill="none" xmlns="http://www.w3.org/2000/svg">
<path d="M16.4185 0.0798961C16.9645 -0.0732888 17.6277 0.0349184 18.1921 0.0683369C21.6676 0.274054 25.2769 1.02097 28.1638 3.1492C30.0813 4.56281 31.9517 6.83369 33.4774 8.67488C34.424 9.81707 35.2391 11.1917 36.2249 12.2659C39.2528 15.565 46.9875 8.22828 49.8697 6.92183C54.0173 5.04175 58.7362 4.01407 63.2934 4.29066C64.84 4.38452 66.5471 5.11071 67.8057 6.00986C69.1328 6.9579 69.7431 8.14762 70.801 9.30422C71.8023 10.3989 73.4032 11.6018 74.5809 12.5687L89.7495 23.9842C92.1422 25.8395 94.5509 27.5655 96.5639 29.8534C97.0454 28.0348 96.7353 26.6076 98.1338 25.1442C98.2276 25.1145 98.7945 24.9026 98.8422 24.92C99.1329 25.0265 99.6789 25.6239 99.9648 25.8306C101.511 26.949 102.872 26.9525 104.688 27.1467L104.592 30.8468C104.582 35.0521 105.324 40.1765 108.368 43.2631C113.085 48.0443 118.471 49.3581 124.915 49.3685C123.962 47.7105 122.46 45.9161 122.005 44.0805C121.641 42.6075 121.763 39.8335 122.555 38.5349C123.828 36.446 125.596 35.9719 127.808 35.4457C129.116 35.9615 130.598 36.2932 131.441 37.4851C132.631 39.168 133.011 40.4781 132.66 42.4841C132.079 45.8068 129.227 47.4572 126.712 49.2328C129.895 50.5185 133.948 53.2459 136.224 55.8535C137.389 57.1879 138.734 58.9839 139.611 60.5346C140.024 61.2642 140.245 62.0958 140.666 62.8144L146.195 71.4145C148.443 74.6661 150.867 76.6404 154.752 77.3339C156.09 76.8419 157.721 76.2537 158.779 75.2608C159.405 74.6729 160.599 72.469 160.595 71.5645C160.585 69.4025 159.788 67.2769 159.843 64.9788C160.237 65.3764 160.551 65.7691 160.723 66.3081C161.552 68.9146 161.976 72.4561 160.653 74.9913C159.872 76.489 158.104 77.9236 156.473 78.3819C153.2 79.3018 149.225 77.1466 147.147 74.6874C145.79 73.0812 144.713 71.1298 143.414 69.4513C142.882 68.7634 142.818 68.1755 142.026 67.7334C141.37 69.5469 140.537 71.6997 138.788 72.7373C137.769 73.3409 136.015 73.2995 134.903 72.9845C133.953 72.7152 132.497 71.4965 132.059 70.6167C131.698 69.8929 131.718 68.5897 131.967 67.8359C132.355 66.6623 133.391 65.8164 134.458 65.2844C136.311 64.3591 138.149 64.4438 140.063 65.1147L140.41 64.7496C138.709 62.4451 137.843 59.7257 135.895 57.4684C133.724 54.9528 129.808 51.9377 126.593 51.0373C124.959 50.5797 122.963 50.4996 121.26 50.2974C119.925 50.1388 118.506 50.2828 117.209 49.8841C114.741 49.1256 111.673 47.8152 109.619 46.2217C109.009 45.7494 108.625 44.9816 108.029 44.5798C107.808 44.4312 107.607 44.2829 107.421 44.0898C103.923 40.4675 103.462 35.9482 103.488 31.1528C102.589 32.5351 101.027 34.6792 100.516 36.1838C99.88 38.0567 100.271 40.1094 100.019 42.0414C99.6956 44.5203 98.7535 46.9445 97.9389 49.2938C98.0737 50.1771 98.2576 50.6048 99.0551 51.0376C105.716 54.6513 113.248 58.1269 116.8 65.3954C117.39 66.6048 117.463 67.7495 117.517 69.0715C117.527 69.3203 117.472 70.4571 117.564 70.6146C117.805 71.0307 120.05 72.1061 120.585 72.466C122.117 73.4947 123.661 74.6871 124.915 76.0477C126.906 78.2063 128.73 82.3187 128.613 85.2522C128.442 89.6141 127.387 93.5579 124.144 96.5832C121.861 98.7129 118.451 100.129 115.319 99.9873C112.003 99.8374 109.145 97.3618 107.006 94.9715C106.554 95.386 106.333 97.5998 106.111 98.3024C105.789 99.3193 105.274 100.384 104.717 101.292C103.984 102.487 102.746 103.513 101.734 104.471C99.8613 104.973 97.1453 105.818 95.2835 105.091L95.1969 105.056L94.7047 105.303C95.5463 107.363 96.8074 109.162 97.185 111.413C97.7265 114.64 96.0125 119.441 94.1684 121.992C92.2205 124.687 88.9512 125.978 85.8103 126.421C85.1764 126.51 84.5638 126.181 83.8349 126.289C83.7188 127.409 86.0255 129.116 86.7061 130.18C88.2128 132.535 88.2544 135.474 87.6981 138.123C87.3813 139.808 86.9011 141.514 85.6531 142.736C82.528 145.795 80.4372 146.058 76.1621 145.992C73.8402 144.792 71.39 142.483 70.2647 140.061C68.579 136.435 69.4148 134.317 70.6494 130.773L70.5185 130.618C69.7114 130.821 68.8964 130.992 68.0628 131.018C65.6249 131.094 63.8531 130.918 62.0134 129.142C60.3573 127.542 58.9094 125.193 58.9213 122.801C58.9337 120.312 60.6575 117.863 62.3328 116.189C61.9987 115.413 60.2697 114.479 59.5915 113.862C58.5339 112.9 57.7574 111.529 57.051 110.302C55.9636 108.413 55.3524 104.169 55.9651 102.018C56.7819 99.1504 57.821 98.0986 60.0545 96.1858L57.3359 95.4755C54.9843 94.6004 52.6709 91.9677 51.694 89.705C50.8291 87.7016 50.9566 83.5959 51.7651 81.5732L51.803 81.4815L51.4676 80.9143L50.7573 80.8826C47.3409 80.6953 45.1661 79.3544 42.9585 76.8239C41.6894 75.3691 41.2901 73.1558 41.4299 71.2546C41.6764 67.9023 42.4096 65.3288 45.0448 63.0681C47.9637 60.5641 51.7388 61.2607 55.2666 61.5497L55.7689 60.5053C59.2732 53.5538 67.0717 50.0634 74.4463 49.6311C76.6035 49.5046 79.269 49.8632 81.445 50.0964C83.9668 50.3667 86.0537 51.4918 88.6423 50.566C91.2872 49.6201 92.8108 48.1742 93.974 45.6694C95.3579 42.6893 96.3339 39.6602 95.1513 36.4055C93.5895 32.1068 87.8348 28.0681 84.4277 25.2089C81.4414 22.7028 78.7033 20.1501 75.3031 18.1733C74.1531 17.5046 72.8851 16.7184 71.6559 16.2239C70.2042 15.6399 68.6338 15.281 67.2865 14.4589C64.8059 12.9454 63.0141 10.7166 60.2741 9.53189C59.5768 9.23038 58.6954 9.2669 57.9458 9.26872C53.0679 9.28108 49.9509 13.0234 45.6642 14.6775C44.8726 14.983 43.6252 15.4557 43.2723 16.2554L43.7918 16.539C47.562 15.0983 53.05 15.9631 56.7812 17.3016C61.8998 19.138 65.5664 22.8711 67.8386 27.7232C68.2772 28.66 68.476 29.6086 68.1358 30.5768C67.083 31.7301 65.49 31.9191 64.0307 32.1738C62.0437 32.5207 59.6105 32.9854 57.6038 32.7499C56.3428 32.602 54.8069 32.2849 53.6102 31.8538C52.4547 31.4375 50.969 30.1876 49.77 30.4101C49.901 31.4975 51.1654 32.2681 51.7329 33.1721C52.5296 34.4413 53.5513 36.5066 53.8996 37.9691C55.1245 43.1132 53.4917 48.9023 50.2007 52.9805C49.3228 54.0684 48.0776 54.8992 47.3523 56.1204C46.8789 56.9172 45.9693 57.9181 45.102 58.2443C44.0403 58.6436 43.51 58.4149 42.5245 57.9657C41.6193 57.5531 40.8951 55.265 40.6157 54.3638C39.9396 52.1827 38.7998 49.5701 38.719 47.3007C38.6478 45.3021 39.2691 42.8873 39.8123 40.9611C40.2707 39.3358 41.0727 36.9055 40.4571 35.256L39.9555 35.0554C39.3736 36.4116 39.5191 38.6175 39.2978 40.1258C39.1899 40.8618 38.7249 41.3201 38.5565 41.9793C38.1707 43.489 38.0769 44.9592 37.3044 46.3692C34.7649 51.005 29.1286 55.2407 24.1122 56.7172C23.6483 56.402 23.4555 56.2088 23.2401 55.6644C23.0282 55.1285 23.0212 54.4323 22.8699 53.8583C21.7778 49.7173 21.9463 45.8196 22.8736 41.6789C23.0951 40.6898 23.2134 39.5404 23.5739 38.5978C24.1862 36.9967 25.3043 35.5544 25.959 33.8947C24.7646 34.8835 23.7654 36.1108 22.5619 37.0796C19.2672 39.7319 14.643 40.9814 10.6057 41.9637C7.05973 42.8265 3.6027 42.5759 0.5 40.6459C1.65686 37.6287 2.44451 34.7582 4.14286 31.9554C7.33185 26.6927 12.7378 22.5895 18.2519 20.1671C19.1499 19.7727 20.0163 19.1706 20.985 18.98C22.3542 18.7107 25.5858 18.8555 26.4705 17.9569C25.0498 16.4326 19.9579 17.0812 17.8207 16.9438C16.1581 16.8369 14.1381 16.5138 12.6153 15.8243C9.87093 14.582 7.17751 10.9472 6.15389 8.14354C5.83055 7.25805 5.4058 5.63345 5.81489 4.74235L5.86875 4.62814C6.07201 4.17825 6.27738 3.79697 6.603 3.42521C8.68781 1.04507 13.446 0.257141 16.4185 0.0798961ZM15.8385 1.19074C13.6001 1.42953 8.85034 2.5021 7.43212 4.26187C6.96013 4.84753 6.81555 5.5982 6.9036 6.3428C7.21732 8.99806 9.82584 12.1178 11.8749 13.73C12.9023 14.5382 14.2023 15.3173 15.4866 15.6113C17.9601 16.1775 20.9811 15.9578 23.5389 16.0345C24.7014 16.0694 25.8919 15.9993 26.9887 16.4487C27.1641 16.5205 27.7897 16.7426 27.8978 16.8802C27.9761 16.9798 28.0615 17.3941 28.1054 17.5316C27.9544 18.3292 27.2998 18.8187 26.7382 19.3454C24.1778 19.9979 21.5362 20.3134 18.9928 21.1349C13.5613 22.8889 8.16389 27.7244 5.26775 32.6328C4.33863 34.2074 1.83998 37.8759 2.3291 39.7558C2.43774 40.1735 2.72634 40.3642 3.08583 40.57C5.36694 41.8759 10.0863 41.0757 12.4873 40.3209C14.6793 39.6316 17.2361 38.9831 19.2492 37.8662C23.2809 35.6295 25.8122 31.2076 29.4401 28.3832L29.9357 28.7334C30.1189 31.6656 28.4401 32.7639 27.0809 35.0931C24.0386 40.3065 22.5336 46.256 23.9484 52.2428C24.1184 52.962 24.0925 54.7427 24.5031 55.2007C29.9708 52.9022 34.6866 49.611 37.0024 43.8812C38.075 41.2273 38.219 37.6309 38.6542 34.7903C38.7461 34.1906 38.801 32.8846 39.0601 32.4201C39.2192 32.135 39.9596 31.6499 40.2359 31.4131L40.8023 31.5693C41.3496 32.72 41.8317 34.6908 41.6202 35.9523C40.7823 40.9493 39.0683 47.3083 41.0719 52.201C41.6487 53.9633 42.276 55.3796 43.6009 56.6953C45.8528 56.412 47.677 54.2846 49 52.5384C51.5536 49.1682 53.8135 44.3989 53.2426 40.0771C52.7271 36.1748 50.021 33.5544 48.2988 30.2405C47.7472 29.1791 47.52 27.9802 47.1437 26.8501C52.6831 30.1349 57.4552 32.5854 64.1595 30.8575C65.1669 30.5979 66.3785 30.2772 67.0071 29.4424C66.9634 27.2916 64.7855 24.4575 63.2925 23.0003C60.7649 20.5332 56.3709 18.1624 52.9072 17.6001C50.7852 17.2556 48.2823 17.4419 46.1229 17.4856C44.8103 17.5122 42.971 17.9093 41.9514 16.9302C41.7233 16.7112 41.6451 16.1449 41.5538 15.83C41.8296 15.1598 42.1432 14.6419 42.736 14.2108C43.927 13.3447 45.5447 12.8694 46.8601 12.1937C48.9541 11.1178 51.0019 9.73551 53.1646 8.83255C56.1699 7.57783 58.477 7.08007 61.6003 8.40569C63.0552 9.02313 64.8273 10.0542 65.7535 11.3648C66.4772 11.2372 66.6309 10.5663 67.1556 10.1474C67.6749 9.73279 68.328 9.40893 68.9096 9.08892C67.6236 8.17326 66.2878 6.87997 64.9463 6.13231C62.4874 4.76185 59.1884 5.49119 56.5626 5.95154C51.8323 6.78094 47.9918 10.2489 43.8312 12.4537C43.0029 12.8926 41.9748 13.6257 41.076 13.847C39.1716 14.3161 37.6544 14.0162 35.7869 13.6022C33.6658 11.8657 32.9039 10.1431 31.2534 8.10633C27.5572 3.54527 21.8805 0.305193 15.8562 1.18289L15.8385 1.19074ZM114.627 73.1321C110.937 74.4113 108.624 76.2046 106.878 79.8197C105.407 82.8631 104.888 86.8151 106.004 90.0865C107.162 93.4817 109.507 96.2677 112.733 97.8433C114.917 98.9101 116.207 99.0216 118.569 98.549C121.68 97.5274 124.275 95.4726 125.793 92.4804C127.328 89.4575 127.963 85.4632 126.898 82.1685C126.28 80.2554 124.87 77.1105 123.284 75.9074C120.341 73.6744 118.274 73.002 114.627 73.1321ZM93.858 60.6861C92.648 60.9923 91.131 61.2284 90.018 61.7956C88.6682 62.4833 87.3472 64.4328 86.589 65.7036C84.6132 69.0149 83.566 73.1868 84.5412 77.0168C85.267 79.8677 88.7447 82.9662 91.1696 84.4011C92.7968 85.3639 95.5677 85.8424 97.4251 85.5011C101.18 83.481 104.996 80.7787 106.357 76.3953C106.62 75.5483 106.559 74.6483 106.767 73.7953C107.252 71.8019 105.815 68.2014 104.791 66.513L102.76 63.6854C101.718 62.0755 98.7395 61.0663 96.944 60.7084C95.9953 60.5192 94.816 60.5611 93.858 60.6861ZM82.9664 101.184C79.2087 102.701 76.502 104.623 74.8641 108.494C73.6909 111.267 73.5446 115.016 74.673 117.849C75.8393 120.778 78.0693 123.225 80.9747 124.454C82.9839 125.302 85.5567 125.075 87.7021 125.082C91.1455 123.691 93.662 121.728 95.1963 118.218C96.3817 115.506 96.146 111.365 95.0865 108.65C94.4729 107.076 92.9259 104.831 91.5194 103.906C88.5525 101.955 86.6811 100.82 82.9664 101.184ZM68.903 58.1463C65.3198 59.0519 62.7845 61.4414 60.9386 64.6318C60.0924 66.0942 60.0708 69.6944 60.4998 71.3091C61.2512 74.1373 63.5039 76.7746 65.9957 78.1988C68.1462 79.4281 71.1007 79.6634 73.5287 79.4056C77.2825 78.4533 79.1186 76.9024 81.065 73.6083C82.3194 71.4851 82.7944 69.5219 82.1896 67.0803C81.4027 63.9041 79.1911 60.6673 76.3659 59.0076C74.1586 57.7109 71.364 58.0748 68.903 58.1463ZM69.7972 10.5836L66.7042 12.2568C67.7766 12.9495 68.8795 13.7294 70.0304 14.2762C71.5723 15.009 73.1086 15.4138 74.6152 16.309C80.6707 19.9073 95.1196 30.3536 96.6471 37.4413C96.7253 37.8047 96.6881 38.1385 96.6557 38.5046C96.5627 39.5556 96.9396 40.5982 96.8582 41.655C96.621 44.7343 94.3008 48.7754 92.0399 50.7807C90.6029 52.0553 88.0605 52.4813 86.2048 52.3362C81.0451 51.9328 75.7951 50.204 70.5828 51.2411C68.581 51.6393 66.2155 52.8587 64.473 53.9092C63.3536 54.584 62.2185 55.082 61.202 55.9299C59.9721 56.9557 58.3698 58.7896 57.5703 60.2141C57.0743 61.0977 57.1638 61.5708 56.3623 62.339C56.4448 62.776 56.5584 62.9869 56.856 63.3078C58.1457 64.6979 58.5426 66.3149 59.3869 67.942C59.5404 66.6762 59.6976 65.4577 59.5816 64.1824C61.2187 61.3407 64.5721 58.3002 67.7451 57.45C68.4372 57.2647 69.1627 57.1941 69.8335 56.9461C70.3179 56.767 71.1729 56.2644 71.6499 56.223C73.0368 56.1024 74.7189 57.1433 76.3066 57.0154C77.3802 56.929 78.4958 56.3812 79.5605 56.146L87.8084 54.3242C89.7213 53.878 91.7011 53.5501 93.3269 52.3499C96.9306 49.6896 98.4731 44.8596 99.1926 40.5874C99.4296 39.1801 99.221 37.6618 99.4126 36.2118C99.7573 33.6025 102.344 30.6398 103.798 28.4991C102.468 28.1297 99.5944 27.6339 98.702 26.5804C98.1728 26.9243 98.0277 27.1463 97.8752 27.7985C97.6195 28.8903 97.9813 29.0737 97.1598 30.035L95.1969 30.3303C89.0623 24.5038 81.8786 19.9984 75.2279 14.8276C74.647 14.3759 73.968 13.8673 73.5217 13.2777C73.0519 12.6568 72.7673 11.8365 72.1331 11.3616C71.6146 10.9736 70.6416 10.5655 69.9938 10.5701L69.7972 10.5836ZM77.6178 79.7587C75.2998 80.0393 73.3482 81.3485 71.9353 83.1678C69.6323 86.1334 69.2321 89.0459 69.6913 92.7008C69.9945 95.1145 71.7182 97.3224 73.6059 98.8195C74.842 99.7999 77.8313 101.12 79.4314 100.921L79.5702 100.901C82.5824 100.055 85.4984 98.4279 87.0751 95.5371C88.4217 93.0685 88.3831 89.4201 87.5526 86.7911C86.8503 84.5681 85.1277 81.931 82.9945 80.8479C81.2027 79.9382 79.5275 80.0075 77.6178 79.7587ZM77.4334 126.145C74.9028 126.97 73.1361 128.096 71.8334 130.543C70.4036 133.228 70.2775 136.244 71.1993 139.119L71.8 140.66C72.355 142.135 73.812 143.585 75.2327 144.214C77.0763 145.031 78.2201 145.17 80.1701 144.993L80.2835 144.982C83.7232 143.627 85.194 142.052 86.6298 138.661C87.1679 137.391 87.1857 135.086 86.7644 133.78C86.725 133.659 86.7034 133.543 86.6797 133.417C86.2533 131.161 84.7355 128.983 82.8783 127.724C80.8476 126.348 79.8964 126.131 77.4334 126.145ZM64.549 95.5525C61.9592 96.0294 59.6087 97.709 58.1079 99.9131C56.6864 102.001 57.4201 105.375 57.9071 107.67C58.387 109.931 59.37 112.35 61.3536 113.679C62.719 114.594 64.6644 114.655 66.2292 114.478C68.653 113.895 70.5398 112.715 71.8664 110.558C73.431 108.013 73.7379 105.723 73.0624 102.844C72.5327 100.585 71.1407 98.157 69.143 96.9496C67.9468 96.2265 65.9296 95.7942 64.549 95.5525ZM47.5461 62.6974C45.3666 63.6817 44.0004 65.6151 43.1647 67.8414C42.5334 69.5231 42.307 71.5676 42.7679 73.3229L42.8465 73.7248C43.138 75.449 44.9717 77.3475 46.3718 78.3132C47.0421 78.7755 47.879 79.1651 48.6709 79.3434C49.9838 79.6391 51.9513 79.8975 53.272 79.4978C55.8827 77.789 57.7272 75.5703 58.3755 72.4325C58.8 70.3783 57.8228 66.9615 56.707 65.2564C56.1338 64.3807 54.1255 62.9156 53.0776 62.7105C51.3475 62.3719 49.2931 62.4737 47.5461 62.6974ZM95.3139 87.053C92.7751 88.3885 90.5361 89.6847 89.6047 92.6322C88.9388 94.7391 88.7055 97.1161 89.7786 99.144C90.8119 101.097 93.1429 102.878 95.2194 103.484C96.1188 103.746 97.1705 103.811 98.1018 103.948C100.597 103.396 102.192 102.661 103.595 100.405C105.04 98.081 105.339 94.7837 104.778 92.1161C104.699 91.7441 104.527 91.4306 104.34 91.1049C104.265 90.973 104.214 90.8434 104.158 90.7027C103.756 89.6992 102.141 88.3283 101.162 87.9129C99.4238 87.1745 97.1779 86.8816 95.3139 87.053ZM59.453 78.3054C57.0426 78.7069 55.1835 79.5323 53.6958 81.6123C52.6977 83.0076 52.0629 85.4305 52.3588 87.1206C52.7196 89.1815 54.2118 92.0163 55.9618 93.2097C57.6351 94.3507 59.0233 95.0669 61.0485 94.9791C63.2078 94.3713 65.2453 93.4808 66.4041 91.4183C68.1942 88.2319 68.4806 85.6972 67.5254 82.1783C67.2136 81.0294 66.1141 80.0243 65.1104 79.4722L64.0685 78.9018C62.876 78.1493 60.9092 77.9943 59.5455 78.2719L59.453 78.3054ZM66.2533 115.669C63.755 116.257 62.5087 117.013 61.1275 119.282C60.1604 120.87 59.9079 122.968 60.364 124.748C60.7877 126.404 62.0218 128.128 63.5102 128.994C64.8353 129.766 66.4302 129.788 67.9155 129.86C70.0854 129.531 71.1699 129.4 72.5631 127.531C73.6917 126.016 74.3114 122.897 74.046 121.052C73.881 119.904 73.101 118.104 72.1481 117.405C72.0136 117.306 71.8615 117.255 71.7095 117.191C69.8309 116.413 68.4078 115.494 66.2533 115.669ZM97.9589 52.2715L98.0183 52.3464C99.0489 53.6288 100.692 54.4101 101.619 55.6864C102.192 56.4766 102.442 57.4708 102.879 58.3381C105.423 63.3901 108.205 69.6118 107.646 75.4031L107.58 76.0324C109.312 74.4981 111.017 73.3329 113.107 72.3363C114.584 71.6174 115.682 71.1875 116.699 69.8542C116.517 65.8407 113.326 62.1904 110.519 59.5939C106.865 56.2158 102.648 54.8198 98.5751 52.1866L97.9589 52.2715ZM95.6261 52.5551L95.5348 52.6148C92.5443 54.5456 88.7586 55.1021 85.3802 55.9663L78.3476 58.134C80.4917 60.5607 82.063 62.5709 83.0632 65.7258C83.4028 66.797 83.4773 67.8983 83.8086 68.9744C84.2185 67.3921 84.5761 65.5808 85.5592 64.2464C88.4805 61.0852 91.0013 59.6439 95.4367 59.4819C97.1968 59.4177 100.627 59.9383 101.9 61.153C102.593 61.8139 103.178 62.4646 103.987 62.994C102.181 59.3846 100.032 54.2733 96.1843 52.4759L95.6261 52.5551ZM126.992 36.674C125.014 37.6503 123.848 38.4466 123.098 40.6437C122.797 41.5247 122.442 42.1161 122.862 42.9869C123.649 44.6119 124.533 46.9874 125.762 48.267C126.416 48.1742 126.926 47.7852 127.466 47.4274C128.798 46.2862 129.755 45.035 130.796 43.6387C131.339 42.9105 131.83 41.7502 131.7 40.8376C131.54 39.7012 131.137 38.4171 130.2 37.6928C129.313 37.0068 128.374 36.4083 127.216 36.6115L126.992 36.674ZM137.179 65.559C135.878 65.8428 134.412 66.2912 133.621 67.4683C133.21 68.0813 133.105 68.7853 133.262 69.4944C133.427 70.241 134.013 71.0151 134.655 71.407C135.232 71.7586 135.896 71.9293 136.568 71.8393C137.915 71.3933 139.59 70.4719 140.246 69.1176C140.551 68.4902 140.568 67.8372 140.461 67.1601C139.475 66.0331 138.56 65.9217 137.179 65.559ZM87.5777 96.7954C87.2364 97.2993 86.8882 97.87 86.4563 98.2974C85.7602 98.9862 84.8515 99.1954 84.6615 100.199C85.3728 100.347 85.8163 100.276 86.5041 100.052C87.238 100.136 88.4397 100.723 88.9521 100.34C88.6348 99.1763 88.2239 98.1531 88.0061 96.9505L87.5777 96.7954Z" fill="black"/>
</svg>
